<svg width="122" height="80" viewBox="0 0 122 80" fill="none" xmlns="http://www.w3.org/2000/svg">
<g clip-path="url(#clip0)">
<path d="M13.0344 10.8685C12.3818 10.907 11.7291 10.9456 10.9422 11.0034C11.0957 10.7336 11.1533 10.5023 11.2877 10.3867C11.6716 10.059 12.0746 9.73141 12.5161 9.46159C13.3607 8.94124 14.0901 8.30525 14.7427 7.51508C15.3569 6.76345 16.1631 6.12746 16.8925 5.49147C17.1228 5.27947 17.4491 5.14456 17.737 5.0482C18.2361 4.89402 18.4472 5.08675 18.332 5.62638C18.1977 6.18528 18.0057 6.72491 17.8522 7.28381C17.7946 7.4958 17.7562 7.7078 17.8138 7.99689C17.929 7.84271 18.0825 7.72707 18.1785 7.55362C18.7351 6.51291 19.311 5.4722 19.8292 4.41221C20.0403 3.98822 20.3091 3.83404 20.7889 3.77622C21.4415 3.67986 22.0941 3.48713 22.67 3.17877C23.6105 2.63914 24.4935 2.00315 25.3764 1.36716C26.8736 0.287904 28.5627 -0.0590003 30.367 -0.00118297C30.8276 0.0180895 31.3267 0.133724 31.749 0.307176C32.4592 0.615536 33.131 0.692626 33.8795 0.461356C35.2807 -0.00118297 36.6244 0.0566343 37.9296 0.88535C38.3902 1.17444 38.9853 1.38643 39.5419 1.42498C40.7128 1.50207 41.4997 2.1766 42.1332 3.00532C42.5938 3.62204 43.1121 3.89185 43.8415 3.79549C44.2829 3.73767 44.7436 3.73767 45.1659 3.64131C45.9529 3.46786 46.6439 3.64131 47.1813 4.21949C47.8339 4.91329 48.5057 5.6071 49.0624 6.39727C49.3695 6.84054 49.5806 7.45726 49.5806 7.99689C49.5998 9.23032 50.0797 10.1939 51.0778 10.8492C52.383 11.6972 53.6306 12.7379 55.3198 12.6608C56.2027 12.6223 57.0856 12.5066 58.0262 12.5259C57.412 12.8535 56.7785 13.1812 56.1643 13.5281C55.4349 13.9328 55.4349 14.0484 56.0683 14.5881C56.3563 14.8386 56.6826 15.0506 56.9705 15.3012C57.815 16.0142 57.8342 16.9586 57.6999 17.9415C57.6807 18.1149 57.5463 18.3462 57.412 18.4233C56.7977 18.7702 56.6826 19.3291 56.5866 19.9651C56.4138 21.0443 56.1835 22.1043 55.9724 23.1836C55.7228 24.5519 56.2219 25.6697 57.2776 26.4792C57.8342 26.9032 58.0838 27.3464 58.0262 28.021C57.9878 28.4257 58.007 28.8497 58.0262 29.2737C58.1221 31.2395 57.4887 32.9355 56.0683 34.3038C55.4925 34.8627 55.2238 35.3445 55.6269 36.1925C56.1067 37.1754 55.9724 38.1776 55.5309 39.3339C55.0318 38.775 54.552 38.2354 54.1105 37.715C53.9953 37.7728 53.957 37.7921 53.9378 37.8114C53.8226 38.139 53.765 38.6979 53.5539 38.7557C52.8629 38.9485 52.1143 39.1605 51.4041 38.7365C51.2313 38.6401 51.0778 38.5245 50.9434 38.3896C50.0605 37.5994 49.3887 37.5994 48.5633 38.4474C48.1602 38.8521 47.8531 39.3532 47.5652 39.835C47.3157 40.259 47.7188 40.8372 48.2754 40.895C48.9472 40.9528 49.619 40.9721 50.2716 41.0492C50.6555 41.107 51.0394 41.2612 51.4233 41.3768C51.4233 41.4732 51.4233 41.5502 51.4233 41.6466C50.9242 41.7044 50.4252 41.8201 49.9261 41.8201C49.4271 41.8201 48.928 41.7237 48.3138 41.6466C48.5441 42.2055 48.7361 42.6873 49.0048 43.3811C48.7169 43.1306 48.5441 43.0342 48.4098 42.8993C47.1813 41.5117 46.4519 39.835 45.6458 38.2161C45.5498 38.0041 45.5882 37.715 45.569 37.4645C45.5498 37.2139 45.569 36.9441 45.4922 36.7129C45.4154 36.443 45.0891 36.154 45.1659 35.9805C45.3003 35.6914 45.6074 35.4409 45.8761 35.2289C47.0661 34.2653 48.2562 33.3016 49.4846 32.3958C50.3292 31.7791 51.3465 31.5864 52.4022 31.6442C52.7861 31.6635 53.17 31.6827 53.5539 31.6442C54.4176 31.5286 55.2622 31.3744 55.5501 32.7042C55.6077 32.6078 55.6653 32.5307 55.742 32.4344C55.6653 32.0875 55.6077 31.7213 55.5117 31.3744C54.8399 29.0039 54.2449 26.5948 53.4579 24.2821C52.2486 20.736 50.0221 17.8644 47.2197 15.4361C45.0507 13.5666 42.5746 12.9306 39.9258 14.1063C37.7376 15.0699 35.4919 15.3397 33.131 15.4361C31.5954 15.4939 30.0982 16.1106 28.5627 16.4575C27.5454 16.6888 26.5089 16.9393 25.4724 17.132C24.5894 17.2862 24.5894 17.2477 24.2055 18.0764C23.956 17.9029 23.7065 17.7295 23.4762 17.556C22.8811 18.3655 22.9003 18.404 23.7065 18.8858C27.1423 20.8709 29.0042 24.629 28.4475 28.5413C28.4283 28.6955 28.3707 28.8304 28.1596 28.9653C28.1596 28.7148 28.1596 28.4642 28.1596 28.1944C28.1788 26.7297 27.9101 25.3228 27.2958 23.993C26.4513 22.1621 24.7622 21.1985 23.2074 21.5647C23.5529 21.8923 23.7833 22.2392 24.1096 22.4127C25.0117 22.8945 25.5492 23.6461 25.9138 24.5712C26.2402 25.3614 26.5665 26.1323 26.9312 26.9995C26.5665 26.8261 26.2977 26.6719 26.0098 26.5563C24.8582 26.113 23.9176 26.3828 23.3226 27.5006C22.9387 28.2137 22.7852 29.0617 22.5548 29.8519C22.478 30.1217 22.478 30.43 22.4588 30.7191C22.4588 31.1046 22.3245 31.3166 21.9022 31.2973C21.0193 31.2395 20.6546 31.8369 20.4818 32.5693C20.3475 33.0896 20.3091 33.6485 20.1555 34.1689C20.0211 34.6314 19.81 35.0554 19.6565 35.4987C19.5989 35.6529 19.4645 35.9227 19.5413 35.9805C20.0211 36.4816 19.6565 36.8478 19.3877 37.2332C18.7927 38.1005 18.2169 38.987 17.641 39.8735C17.2571 40.4517 16.7389 40.9143 16.2398 41.3961C15.3569 42.2248 14.7811 43.3233 14.6851 44.5953C14.6467 45.1927 14.7427 45.8095 14.7235 46.4262C14.7043 47.0429 14.7619 47.5633 15.5105 47.756C15.8943 47.8523 15.9327 48.2185 15.7984 48.5461C15.7024 48.816 15.5296 49.0472 15.4145 49.317C14.9346 50.2999 14.4739 51.2636 13.9941 52.2465C13.9173 52.4199 13.7254 52.5355 13.591 52.6897C13.4758 52.5548 13.2839 52.4392 13.2455 52.3043C13.0152 51.0901 12.2666 50.7239 11.0957 50.6854C9.7905 50.6468 9.7905 50.5505 9.59856 49.2014C9.57936 49.0087 9.54097 48.816 9.52178 48.6232C9.46419 48.1029 9.17628 47.7945 8.65803 47.7752C8.12058 47.7367 7.56394 47.7174 7.0265 47.756C6.77697 47.7752 6.50825 47.968 6.3163 48.1607C5.77886 48.7196 5.58691 48.7774 4.99189 48.2763C4.64639 47.9872 4.35847 47.6403 4.08975 47.2934C2.30466 45.0964 1.65205 42.668 1.61366 40.047C1.61366 39.7964 1.63286 39.5266 1.57527 39.2761C1.30655 38.3317 1.22977 37.4259 1.86319 36.5587C1.95916 36.4238 1.92077 36.0769 1.80561 35.9612C1.70963 35.8649 1.42172 35.9227 1.21058 35.9612C0.826688 36.019 0.442799 36.0961 0.0397149 36.1732C0.0397149 35.7685 -0.0178685 35.3831 0.0205204 34.9783C0.250854 33.2438 0.519576 31.49 0.769104 29.7555C0.826688 29.3508 0.903466 28.9075 0.807493 28.5221C0.615549 27.6741 1.01863 27.1923 1.67124 26.8068C1.92077 26.6526 2.15111 26.4792 2.36224 26.2865C2.61177 26.0745 2.70774 25.8625 2.61177 25.4577C2.49661 24.9952 2.57338 24.4363 2.66936 23.9545C2.8613 22.9138 3.14922 21.9116 3.36036 20.8709C3.82102 18.5197 5.06866 16.6309 6.91133 15.2241C8.56206 13.9714 10.3471 12.9114 12.0938 11.7743C12.4393 11.543 12.7848 11.3503 13.1303 11.1383C13.0919 11.0419 13.0536 10.9456 13.0344 10.8685ZM9.75211 16.4768C10.6159 16.0913 11.8443 15.1662 12.4969 14.4339C12.6313 14.299 12.7848 14.1448 12.8424 13.9714C12.8808 13.8364 12.8232 13.5666 12.7273 13.5281C11.9595 13.1426 10.7118 13.6052 10.4047 14.4146C10.1168 15.0506 9.96325 15.7251 9.75211 16.4768ZM49.8685 36.7321C50.1373 36.6165 50.3484 36.5587 50.5403 36.4623C51.0394 36.1925 51.5385 35.9227 52.0183 35.6336C52.1335 35.5758 52.1911 35.4216 52.287 35.3252C52.1527 35.2674 51.9991 35.1132 51.9031 35.1518C51.1546 35.3831 50.406 35.6143 49.6766 35.9034C49.5038 35.9612 49.4079 36.2118 49.2927 36.3852C49.4846 36.5009 49.6766 36.6165 49.8685 36.7321ZM2.22788 37.0598C2.26627 37.079 2.30466 37.0983 2.36224 37.1176C2.36224 37.2139 2.34305 37.3103 2.36224 37.4067C2.38144 37.5223 2.43902 37.6379 2.49661 37.7343C2.63097 37.6765 2.80372 37.6379 2.88049 37.5416C2.99566 37.4067 3.16841 37.1947 3.13002 37.0598C3.01486 36.5201 3.37955 36.2503 3.66747 35.9227C3.8978 35.6721 4.12814 35.3445 3.78263 35.1325C3.62908 35.0362 3.09163 35.1711 2.97647 35.3638C2.66936 35.8841 2.47741 36.4816 2.22788 37.0598ZM10.5583 17.556C8.73481 18.3655 8.50447 18.7124 8.84997 20.0229C9.63694 19.4062 10.0016 18.5389 10.5583 17.556ZM2.99566 30.0639C3.917 29.717 4.30088 28.4064 3.80183 27.4043C3.53311 28.3293 3.28358 29.1581 2.99566 30.0639ZM51.5768 37.6765C51.7112 37.4645 51.8072 37.3296 51.8839 37.1947C51.7304 37.0983 51.596 36.9249 51.4425 36.9249C51.3273 36.9441 51.2121 37.1561 51.097 37.2718C51.2505 37.3874 51.3849 37.503 51.5768 37.6765Z" fill="#5B5353"/>
<path d="M56.7198 73.6979C55.7025 74.1604 55.2034 74.8542 54.7236 75.5866C54.2437 76.2996 53.8023 77.0513 53.2648 77.7258C52.5162 78.6894 51.4989 79.1905 50.2705 79.1712C49.3683 79.1712 48.4854 79.1712 47.5832 79.1712C47.2761 79.1712 46.969 79.2098 46.7579 78.8436C46.6811 78.7087 46.2972 78.6894 46.0669 78.6894C43.6868 78.5352 41.5178 77.7836 39.4448 76.6273C39.1953 76.4924 38.9649 76.2996 38.7538 76.1262C38.6578 76.0491 38.6002 75.9335 38.4275 75.7215C38.9457 75.7986 39.3488 75.8564 39.7327 75.9142C43.3605 76.4345 46.8731 75.7986 50.2705 74.5651C52.0939 73.9099 53.8214 72.9848 55.5489 72.1175C57.2189 71.2888 58.0058 69.7855 58.5241 68.0703C59.0423 66.355 59.0615 66.355 60.7314 66.8754C62.8044 67.5307 64.8007 68.3594 66.7009 69.4579C67.4687 69.9012 67.8526 70.4408 67.7758 71.3852C67.6607 72.792 67.7374 74.2182 67.5647 75.6058C67.2768 77.9185 66.0483 79.0941 63.745 79.364C61.7488 79.5952 59.7333 79.6338 57.7371 79.3447C57.1613 79.2676 56.8542 79.0363 56.835 78.4774C56.7774 77.4174 56.739 76.3767 56.7006 75.3167C56.7006 74.7964 56.7198 74.3146 56.7198 73.6979Z" fill="#5B5353"/>
<path d="M32.0744 47.0248C33.3412 45.7528 34.6657 44.5772 36.6619 44.5386C36.7579 44.5386 36.8538 44.5386 36.9498 44.5386C38.2358 44.5193 38.351 44.4423 38.7733 43.2666C38.8309 43.0932 38.8501 42.8812 38.7925 42.7077C38.5621 41.8983 37.9863 41.4165 37.2185 41.1467C37.065 41.0888 36.8154 41.3201 36.6043 41.4358C36.7003 41.5707 36.7962 41.7441 36.9306 41.8405C37.1801 42.0332 37.4681 42.1681 37.8903 42.4186C37.4489 42.5536 37.1226 42.6499 36.8154 42.7463C36.4507 42.8619 36.0669 42.939 35.7406 43.1125C35.3759 43.3052 35.1263 43.9797 34.6657 43.2281C34.6465 43.1895 34.3969 43.3052 34.2434 43.3245C33.7827 43.4015 33.3029 43.4979 32.8422 43.5557C32.1704 43.6714 31.6521 43.4401 31.3066 42.8426C31.0571 42.3608 30.7692 42.3223 30.3469 42.6692C29.6943 43.1703 28.9265 43.5557 28.3123 44.0954C27.6789 44.635 27.1606 45.2902 26.5848 45.8877C26.5272 45.8491 26.4696 45.8106 26.4312 45.7721C26.604 45.4444 26.7575 45.1168 26.9879 44.6543C26.5272 44.7699 26.2009 44.8662 25.7402 44.9819C26.1625 44.1339 26.5272 43.4401 26.8727 42.727C27.1414 42.1874 27.4677 41.6863 27.2758 41.0118C27.199 40.7805 27.391 40.3758 27.5829 40.1445C28.4083 39.2194 29.272 38.3136 30.1358 37.4078C30.2509 37.2922 30.3853 37.1958 30.5389 37.138C32.2088 36.5791 33.8595 35.9624 35.6638 36.0202C36.7771 36.0587 37.7944 36.4056 38.4854 37.2344C39.2723 38.1402 39.8866 39.2001 40.5584 40.2216C40.8463 40.6649 40.6735 41.1081 40.3856 41.455C40.0401 41.8983 39.8866 42.3223 40.0785 42.8619C40.2896 43.4594 40.0593 43.9412 39.5219 44.2303C38.7157 44.6543 38.0631 45.2517 37.0266 45.2902C36.2396 45.3288 35.491 45.8684 34.7232 46.1768C33.8787 46.5237 33.0533 46.8706 32.2088 47.2175C32.1512 47.1982 32.1128 47.1019 32.0744 47.0248ZM32.1896 40.0867C32.132 40.0096 32.0744 39.9325 32.0168 39.8747C30.6348 39.971 29.9822 41.2623 28.9073 41.879C28.677 42.0139 28.581 42.3608 28.4083 42.5921C28.4467 42.6114 28.485 42.6499 28.5426 42.6692C29.7519 41.8212 30.9803 40.9539 32.1896 40.0867ZM33.3988 41.6092C33.1301 41.4358 32.9765 41.2623 32.8998 41.3008C32.6886 41.3972 32.4967 41.5514 32.3047 41.6863C32.4391 41.7827 32.5927 41.9947 32.7078 41.9754C32.8998 41.9368 33.0917 41.7827 33.3988 41.6092Z" fill="#5B5353"/>
<path d="M23.1103 79.5181C22.9567 79.4796 22.8608 79.4796 22.784 79.4218C21.1908 78.2654 19.4249 78.1883 17.5631 78.5545C15.183 79.0171 12.7837 79.4218 10.4035 79.7687C9.29027 79.9421 8.1386 79.9229 7.00613 79.9999C6.96774 79.9229 6.94855 79.865 6.91016 79.7879C7.23646 79.4989 7.52438 79.1712 7.86988 78.9592C9.02155 78.2654 10.1924 77.6294 11.3633 76.9742C12.8029 76.1647 14.2616 75.3746 15.7012 74.5266C16.3346 74.1604 16.9297 73.7171 17.4863 73.2546C18.7339 72.2139 19.6553 70.9997 19.329 69.0146C19.7321 69.4001 20.02 69.5928 20.2311 69.8626C20.615 70.3252 20.9413 70.8455 21.306 71.3273C21.6515 71.7899 21.7667 72.291 21.7859 72.9077C21.8243 73.9484 22.1122 74.9698 22.3425 75.9913C22.5536 76.9549 22.8608 77.8993 23.0911 78.8629C23.1679 79.0363 23.1103 79.2676 23.1103 79.5181Z" fill="#5B5353"/>
<path d="M81.2887 21.5659C80.8089 21.643 80.3866 21.6815 80.233 21.1226C79.5612 21.7008 78.947 22.279 78.2752 22.7993C77.8721 23.1269 77.3731 23.3197 76.8548 22.992C76.375 22.7029 76.3558 22.2019 76.3558 21.7201C76.3941 20.6215 76.7972 19.6579 77.4306 18.7906C77.5458 18.6365 77.6802 18.5016 77.8529 18.4052C78.0065 18.3281 78.2752 18.2317 78.3712 18.3088C78.5055 18.4245 78.6591 18.7135 78.6015 18.8677C78.448 19.4074 78.2368 19.947 77.9873 20.4673C77.8145 20.8335 77.4882 21.1419 77.2963 21.5081C77.2003 21.7008 77.1619 22.0284 77.2579 22.1826C77.3731 22.356 77.6802 22.4717 77.9105 22.4717C78.1792 22.4524 78.4672 22.3175 78.6975 22.1633C79.4845 21.5851 80.0987 20.8721 80.3098 19.8699C80.5977 18.463 81.1352 17.1718 82.4404 16.3623C82.594 16.2659 82.6899 16.0154 82.7283 15.8034C82.8243 15.3409 82.8819 14.8591 82.9587 14.358C83.4769 14.6085 83.3233 15.0132 83.2658 15.3601C83.2274 15.6685 83.0546 15.9769 83.5729 16.0732C83.688 16.0925 83.7456 16.4201 83.8416 16.5936C83.688 16.5743 83.4961 16.4972 83.3617 16.555C83.189 16.6321 82.9779 16.7863 82.9395 16.9405C82.7091 18.0968 82.5364 19.2724 82.4212 20.4866C83.3809 19.7735 84.3599 19.0797 84.6862 17.827C84.9549 16.8248 85.2812 15.8612 86.1833 15.2252C86.3561 15.1096 86.5672 15.0711 86.7592 14.994C86.7975 15.1674 86.8743 15.3409 86.8935 15.5336C86.9511 15.9961 86.74 16.6321 87.2774 16.8056C87.5653 16.9019 88.026 16.4972 88.621 16.2081C88.1796 16.6321 87.93 17.0368 87.5845 17.191C87.0279 17.4608 86.7784 17.8463 86.6824 18.4245C86.6248 18.7521 86.4137 19.0797 86.2025 19.3495C85.7994 19.9084 85.1276 20.0241 84.7821 19.2532C84.7245 19.1375 84.6478 19.0412 84.5902 18.9448C83.8992 19.6001 83.2082 20.2168 82.5748 20.8913C82.3636 21.1226 82.2485 21.4888 82.1909 21.8164C81.7878 23.9171 81.4615 26.0371 81.0008 28.1378C80.6361 29.7952 79.8492 31.2599 78.256 32.1272C77.9489 32.3006 77.6226 32.4355 77.2963 32.5512C76.4901 32.8403 75.7607 32.6475 75.2233 31.9923C74.3403 30.9516 73.8605 29.7374 73.8989 28.369C73.9181 27.9643 74.2636 27.5018 74.5515 27.1549C76.2598 25.2855 78.2944 23.7822 80.3098 22.2597C80.6169 22.067 80.9432 21.8164 81.2887 21.5659ZM81.7686 21.5851C80.9624 22.1826 80.2714 22.6451 79.638 23.1655C78.1216 24.4375 76.6245 25.7287 75.1081 27.0007C74.5899 27.444 74.4363 28.0029 74.5131 28.6389C74.6666 29.6989 74.993 30.701 75.6264 31.5683C76.3174 32.5319 77.0084 32.6283 77.9873 31.9345C79.043 31.2021 79.6188 30.1228 79.9451 28.9472C80.5402 26.9236 81.02 24.8615 81.5383 22.8186C81.6534 22.4717 81.6918 22.1055 81.7686 21.5851ZM82.5556 16.6707C81.2503 17.5765 80.6169 19.7735 81.212 20.9492C82.1525 19.7157 82.3252 18.2703 82.5556 16.6707ZM86.1449 15.7649C85.3772 16.7285 85.3388 17.827 85.4731 18.9641C85.4923 19.099 85.6459 19.2724 85.7419 19.2917C85.857 19.311 86.0298 19.1954 86.1065 19.0797C86.2217 18.9063 86.2985 18.675 86.3753 18.463C86.74 17.5187 86.1641 16.6707 86.1449 15.7649ZM77.0468 21.1611C77.661 20.4481 78.1408 19.6964 78.1025 18.5208C77.2003 19.3495 77.0468 20.2168 77.0468 21.1611ZM81.9797 20.8335C81.8838 20.7564 81.8454 20.7179 81.7878 20.6601C81.711 20.795 81.6342 20.9106 81.5767 21.0455C81.5767 21.0648 81.6726 21.1419 81.711 21.1804C81.807 21.0648 81.8838 20.9684 81.9797 20.8335Z" fill="#5B5353"/>
<path d="M68.6972 25.3047C68.0254 25.748 67.6031 26.1527 67.0849 26.3647C65.9716 26.8658 64.8199 26.4418 64.2249 25.3626C63.841 24.6687 63.6874 23.9364 63.8026 23.1462C64.0138 21.7201 64.6088 20.5252 65.7221 19.6001C66.509 18.9448 67.4112 18.6557 68.3901 19.0026C68.8891 19.1761 69.0043 19.0219 69.0619 18.5786C69.1579 17.7499 69.4458 16.9019 69.3306 16.1118C69.1771 15.0518 69.7913 14.2231 69.8681 13.2594C69.8873 13.1053 70.1944 12.9896 70.3671 12.8354C70.4247 13.0282 70.5399 13.2209 70.5399 13.4136C70.5399 13.5871 70.4631 13.7991 70.3671 13.9533C69.4458 15.3987 69.7529 17.0368 69.4266 18.8099C69.7913 18.5016 70.0024 18.3474 70.1944 18.1739C71.0005 17.4994 71.9027 17.2681 72.8624 17.6921C73.8029 18.0968 74.206 18.9255 74.2828 19.9277C74.4172 21.7586 73.7454 23.2619 72.3442 24.3989C71.4612 25.1313 70.4439 25.2276 69.4074 24.8229C69.1195 26.2684 68.8892 27.6752 68.5245 29.0629C67.9678 31.2021 66.5858 32.6283 64.5128 33.3606C63.5339 33.7075 62.5358 33.7075 61.6528 33.0523C63.3611 33.6304 64.8583 33.3028 66.0484 31.8574C66.7202 31.0287 67.2576 30.0458 67.6607 29.0629C68.1022 27.9065 68.3325 26.6731 68.6972 25.3047ZM68.9275 21.2382C68.9275 21.0648 68.9275 20.7179 68.9275 20.3517C68.9083 19.5037 68.4669 19.0797 67.6607 19.311C67.1616 19.4459 66.6434 19.735 66.2787 20.1012C65.1846 21.1226 64.6472 22.4524 64.5512 23.9364C64.532 24.3797 64.6088 24.8422 64.7431 25.2469C65.0311 26.1527 65.6837 26.4804 66.5282 26.0756C67.6991 25.5167 68.6972 24.7266 68.7356 23.2426C68.774 22.6259 68.8508 22.0091 68.9275 21.2382ZM69.2922 22.2404H69.273C69.273 22.6837 69.273 23.1462 69.273 23.5895C69.2922 24.5146 69.8297 24.9 70.7126 24.6109C71.0389 24.4953 71.3652 24.3218 71.634 24.1098C72.8048 23.0691 73.4958 21.7586 73.5726 20.1783C73.5918 19.6579 73.4958 19.0797 73.3039 18.5979C72.9968 17.8656 72.4017 17.6728 71.6532 17.9234C70.4055 18.3474 69.4074 19.6386 69.3306 20.9299C69.273 21.3539 69.2922 21.7971 69.2922 22.2404Z" fill="#5B5353"/>
<path d="M57.1037 61.3828C56.4703 61.5948 55.9329 61.9224 55.6066 61.0744C55.549 60.9395 55.0307 60.901 54.7428 60.9395C53.3608 61.1515 51.9596 61.3635 50.5968 61.6719C47.7368 62.3271 44.8768 63.0402 42.0169 63.7147C40.5197 64.0809 39.1953 64.7169 38.3123 66.066C38.178 66.278 38.0052 66.702 37.583 66.4707C37.1415 66.2394 37.0071 65.8154 37.2375 65.3529C37.5638 64.7169 37.9093 64.1195 38.2164 63.4835C38.4083 63.0787 38.7154 62.9438 39.1377 62.9824C39.4448 63.0209 39.7711 63.098 40.0974 63.0595C40.6541 63.0209 41.2299 62.9631 41.7865 62.8282C42.3048 62.674 42.7847 62.4235 43.2837 62.1729C44.8001 61.402 46.374 60.9973 48.0823 61.0551C49.0037 61.0937 49.8674 60.8817 50.616 60.3421C51.902 59.417 53.38 59.2435 54.9156 59.3013C55.8753 59.3399 56.5855 59.6675 56.8542 60.6697C56.8734 60.901 56.9886 61.0937 57.1037 61.3828Z" fill="#5B5353"/>
<path d="M87.4696 60.6504C87.4504 62.2693 87.1624 63.6955 86.3947 65.006C84.648 68.0125 80.6747 68.0511 78.9856 65.0253C77.45 62.2886 77.4692 59.4363 78.8704 56.661C79.6382 55.1385 80.9242 54.3483 82.6517 54.329C84.36 54.3098 85.5693 55.0999 86.4139 56.5454C87.2008 57.8366 87.4312 59.2628 87.4696 60.6504ZM86.625 60.7853C86.5866 59.3013 86.3563 57.9908 85.6269 56.8152C84.1873 54.5025 81.0394 54.464 79.7342 56.8537C78.3138 59.4748 78.3138 62.2115 79.8493 64.8133C81.1738 67.0296 84.0529 67.0103 85.4733 64.8711C86.3179 63.5798 86.6058 62.1537 86.625 60.7853Z" fill="#5B5353"/>
<path d="M88.7361 60.5733C88.7553 59.0122 89.12 57.5475 89.9645 56.1985C91.5577 53.6931 95.1662 53.6545 96.8553 56.025C98.7172 58.6075 98.6596 63.2136 96.6826 65.6998C95.0319 67.7812 91.8072 67.7427 90.214 65.642C89.0816 64.1387 88.7169 62.4042 88.7361 60.5733ZM89.5806 60.7468C89.5806 62.4427 90.0221 63.9653 90.8475 65.0831C92.1527 66.8561 94.6864 66.8947 96.0108 65.1602C97.7191 62.9246 97.8343 58.9544 96.2603 56.6417C94.7439 54.4254 91.8456 54.541 90.5212 56.873C89.8493 58.0872 89.5614 59.3784 89.5806 60.7468Z" fill="#5B5353"/>
<path d="M109.543 26.2491C109.774 25.3818 110.004 24.5338 110.234 23.6665C110.273 23.5509 110.292 23.3967 110.388 23.3196C110.465 23.2425 110.599 23.2233 110.695 23.1655C110.733 23.2618 110.829 23.3775 110.81 23.4738C110.752 23.8593 110.618 24.2254 110.58 24.5916C110.484 25.3818 110.407 26.172 110.369 26.9814C110.369 27.1549 110.561 27.3476 110.656 27.5403C110.81 27.4439 111.021 27.3861 111.136 27.2705C111.943 26.4803 112.557 25.5745 112.845 24.4374C113.133 23.2618 113.632 22.2018 114.937 21.5851C114.956 21.9898 114.937 22.3367 115.033 22.6451C115.11 22.9727 115.282 23.2618 115.417 23.5702C115.685 23.4353 115.993 23.3196 116.223 23.1462C116.914 22.6258 117.087 21.8549 117.24 21.0455C117.701 18.4244 118.334 15.8419 119.332 13.3751C119.64 12.6042 120.023 11.8525 120.484 11.178C120.983 10.4456 121.559 10.542 121.885 11.39C122.154 12.0645 122 12.7198 121.732 13.3365C121.175 14.6278 120.58 15.8997 119.985 17.1717C119.755 17.6728 119.505 18.1546 119.256 18.6364C118.603 19.9084 118.603 19.9084 119.332 21.1611C119.812 21.9706 120.043 22.0091 120.695 21.3538C120.81 21.2382 120.926 21.1419 121.041 21.0455L121.079 21.084C120.791 21.7778 120.35 22.3175 119.563 22.4909C119.39 22.5295 119.275 22.7993 119.16 22.992C118.776 23.6087 118.469 24.2833 118.008 24.8422C117.586 25.3432 117.144 25.1698 117.029 24.5145C116.933 24.0134 116.933 23.5124 116.895 23.0113C116.319 23.416 115.724 23.8014 115.167 24.2254C115.033 24.3218 115.014 24.5531 114.937 24.7265C114.822 25.0156 114.745 25.3432 114.591 25.6131C114.035 26.6923 113.42 26.7309 112.729 25.6902C112.365 26.2105 112 26.7309 111.616 27.2319C111.539 27.3283 111.443 27.4247 111.347 27.5018C110.983 27.8101 110.599 28.2341 110.081 28.0028C109.505 27.7523 109.774 27.1549 109.793 26.7116C109.793 26.4803 110.004 26.2298 109.543 26.2491ZM117.931 19.8699C118.008 19.8891 118.085 19.9084 118.162 19.9084C119.371 17.8848 120.426 15.8034 121.213 13.5678C121.29 13.3365 121.329 13.0667 121.329 12.8162C121.309 12.3729 121.309 11.7947 120.83 11.6983C120.618 11.6598 120.254 12.1609 120.004 12.45C119.87 12.6042 119.793 12.8354 119.716 13.0474C119.275 14.4736 118.795 15.8997 118.392 17.3259C118.162 18.1739 118.085 19.0412 117.931 19.8699ZM118.104 20.7179C117.662 21.296 117.49 23.416 117.835 23.9749C118.066 24.3218 118.238 24.1484 118.411 23.9171C119.121 22.992 119.025 21.8935 118.104 20.7179ZM114.399 22.4717C114.303 22.4524 114.227 22.4524 114.131 22.4331C113.478 23.416 113.478 24.5338 113.612 25.6709C113.632 25.7672 113.766 25.96 113.824 25.9407C113.958 25.9214 114.15 25.8443 114.207 25.7287C114.342 25.4782 114.515 25.2083 114.515 24.9385C114.534 24.1291 114.457 23.3004 114.399 22.4717Z" fill="#5B5353"/>
<path d="M89.4465 25.6902C89.5425 26.0371 89.6385 26.3647 89.7153 26.7116C89.7728 26.9044 89.792 27.1163 89.8304 27.3091C89.8496 27.3862 89.8112 27.4825 89.8112 27.5596C89.293 27.4825 89.3698 27.9643 89.293 28.1956C88.6596 30.4312 88.4676 32.7246 88.602 35.0373C88.6212 35.2686 88.6596 35.4806 88.7171 35.6926C89.0051 36.7911 89.6385 37.0031 90.5214 36.2708C90.8477 36.001 91.0973 35.5962 91.366 35.2493C91.5963 34.9217 91.7883 34.5555 92.057 34.093C91.865 35.577 90.4446 37.1188 89.1778 37.3308C88.4484 37.4464 87.9494 37.138 87.911 36.29C87.8534 35.1144 87.9302 33.9388 87.9686 32.7632C87.9877 32.3199 88.0837 31.8766 87.9686 31.3948C87.815 31.761 87.6806 32.1272 87.5079 32.4741C86.8361 33.8232 86.2027 35.1722 85.4541 36.4828C84.955 37.35 84.2448 38.0631 83.3427 38.5064C81.9031 39.2195 81.1161 38.6991 81.2313 37.0995C81.4041 34.8446 82.2294 32.821 83.4195 30.9323C84.1681 29.7374 85.0702 28.6389 86.2027 27.7909C86.9129 27.2513 87.6614 26.7309 88.6212 26.7887C88.9667 26.808 89.0626 26.6345 89.1202 26.3454C89.1586 26.1335 89.2354 25.9215 89.293 25.7287C89.3122 25.7287 89.3889 25.7095 89.4465 25.6902ZM88.8707 27.3669C87.7958 27.3091 87.028 27.6174 86.2986 28.1185C83.9761 29.7374 82.8628 32.0886 82.3254 34.7675C82.191 35.4806 82.1526 36.2322 82.191 36.9646C82.2486 37.8511 82.7861 38.1209 83.5922 37.7547C84.456 37.35 85.051 36.6177 85.5501 35.8275C87.1624 33.2643 88.0069 30.3927 88.8707 27.3669Z" fill="#5B5353"/>
<path d="M51.7677 64.5435C51.9405 64.582 52.2668 64.6784 52.5931 64.7555C52.4396 65.0638 52.3436 65.4107 52.1516 65.6613C51.4222 66.6056 50.3666 66.9911 49.2533 67.1838C47.8137 67.4536 46.3549 67.6271 44.9153 67.8583C44.493 67.9354 44.4547 67.7427 44.5506 67.4536C44.7618 66.702 45.3376 66.2394 45.9902 65.8733C47.1995 65.1987 48.5431 64.9096 49.9059 64.7169C50.4625 64.6398 51.0384 64.6013 51.7677 64.5435Z" fill="#5B5353"/>
<path d="M94.9554 29.5639C94.226 30.7588 93.9765 31.9923 94.3796 33.5919C94.6867 33.1679 94.9362 32.9174 95.0706 32.6283C95.8 31.125 95.8767 29.6025 94.9362 28.1571C94.418 27.3669 93.8421 26.596 93.2855 25.8058C92.4218 24.5724 92.5177 23.3389 93.3623 22.1441C94.5715 20.4481 96.2798 19.4845 98.2569 19.0219C99.7348 18.675 100.33 19.3303 100.291 21.0648C100.215 21.007 100.119 20.9684 100.1 20.9106C99.5429 19.6965 99.063 19.4266 97.777 19.735C96.3566 20.0626 95.0898 20.7564 94.0341 21.7586C93.1319 22.6066 92.94 23.628 93.5542 24.7073C93.9765 25.4589 94.5331 26.1335 95.0322 26.8273C96.4526 28.7352 96.4718 31.337 95.0706 33.2643C94.7827 33.669 94.4372 34.2664 93.8997 34.0544C93.3623 33.8617 93.4583 33.1872 93.5158 32.6861C93.5926 31.4719 94.0149 30.4119 94.9554 29.5639Z" fill="#5B5353"/>
<path d="M109.543 26.2491C109.37 26.6345 109.217 27.0585 108.986 27.4054C108.871 27.5596 108.487 27.656 108.334 27.5789C108.18 27.5018 108.084 27.1742 108.084 26.9429C108.103 26.4996 108.199 26.0564 108.103 25.5746C107.95 26.1142 107.815 26.6538 107.643 27.1934C107.451 27.7716 107.259 28.3305 106.99 28.8894C106.817 29.2556 106.587 29.6218 106.03 29.5061C105.915 29.4869 105.762 29.6218 105.646 29.7181C105.493 29.8338 105.397 30.0072 105.243 30.1229C104.456 30.8167 103.804 30.6625 103.228 29.6025C102.998 29.9301 102.806 30.2578 102.556 30.5276C102.095 31.0287 101.712 30.9516 101.481 30.3348C101.289 29.8338 101.174 29.4098 101.443 28.7931C101.923 27.6753 102.422 26.6345 103.439 25.9407C103.516 25.8829 103.612 25.8251 103.631 25.748C103.919 24.9771 104.341 25.2662 104.744 25.5746C104.61 25.7673 104.399 25.96 104.36 26.172C104.188 27.1742 104.015 28.1956 103.957 29.217C103.938 29.5447 104.13 30.1036 104.36 30.1807C104.84 30.3349 105.167 29.9301 105.359 29.4869C105.493 29.1592 105.57 28.8123 105.723 28.504C105.877 28.1956 106.088 27.9065 106.28 27.5596C106.395 28.0222 106.491 28.3498 106.587 28.6774C106.779 28.3883 107.048 28.1185 107.144 27.7909C107.47 26.7309 107.758 25.6324 108.007 24.5531C108.142 23.9749 108.43 23.6666 109.082 23.6088C108.929 24.8037 108.794 25.96 108.66 27.1163C108.718 27.1356 108.775 27.1742 108.814 27.1934C109.044 26.8851 109.293 26.5574 109.543 26.2491ZM103.593 26.0949C102.403 27.1549 102.076 28.3305 102.057 29.641C102.057 29.8145 102.249 30.0072 102.345 30.1807C102.499 30.0265 102.729 29.9109 102.786 29.7181C103.247 28.6389 103.497 27.5018 103.593 26.0949Z" fill="#5B5353"/>
<path d="M74.3788 60.8624C74.3788 62.5969 74.3788 64.3122 74.3788 66.0467C74.3788 66.4322 74.5516 67.0296 73.9565 67.0103C73.4191 66.9911 73.5343 66.3936 73.5343 66.0082C73.5343 62.8475 73.5343 59.6868 73.5343 56.5068C73.5343 56.2563 73.5151 55.9865 73.5343 55.7359C73.5343 55.4083 73.3807 55.2734 73.0736 55.2927C72.7281 55.312 72.3634 55.3312 72.0179 55.2734C71.826 55.2349 71.6532 55.0229 71.4805 54.8687C71.6724 54.7531 71.8452 54.5411 72.0563 54.5218C72.5554 54.464 73.0736 54.5218 73.5918 54.5025C74.1677 54.4832 74.398 54.7338 74.398 55.2927C74.3788 56.2756 74.398 57.2777 74.398 58.2606C74.3788 59.1472 74.3788 59.9952 74.3788 60.8624Z" fill="#5B5353"/>
<path d="M92.6709 15.283C92.0567 16.4394 90.6747 17.5957 89.5038 17.7499C90.4828 17.0561 90.8667 16.2081 90.7131 15.1481C89.9261 16.0732 89.2735 17.0561 88.9856 18.2895C88.5633 20.1975 88.1218 22.0862 87.6036 23.9749C87.45 24.5724 87.0853 25.1313 86.7206 25.6516C86.5863 25.8443 86.1064 26.0371 86.0104 25.96C85.7993 25.7865 85.6458 25.4396 85.6458 25.1698C85.6458 24.8036 85.7609 24.3989 85.9145 24.052C86.5671 22.5295 87.2197 20.9877 87.9491 19.5037C88.4673 18.4052 88.5825 17.2681 88.6785 16.0925C88.7361 15.1867 89.0816 14.3194 89.3311 13.4329C89.3503 13.3365 89.5614 13.2787 89.6766 13.2016C89.7534 13.3751 89.9261 13.587 89.9069 13.7412C89.7726 14.5507 89.5998 15.3601 89.3887 16.4201C89.7918 15.8612 90.0413 15.4565 90.3292 15.071C90.4636 14.8976 90.5787 14.6856 90.7515 14.5507C90.905 14.435 91.1354 14.3965 91.3273 14.3194C91.3849 14.4929 91.5001 14.6663 91.5001 14.8205C91.4809 15.3216 91.4233 15.8227 91.3657 16.4008C91.8456 16.0347 92.2487 15.6492 92.6709 15.283ZM88.1218 20.2168C88.0643 20.1975 88.0067 20.1782 87.9299 20.159C87.1813 21.6622 86.5671 23.204 86.1448 24.8229C86.0872 25.0734 86.1832 25.3625 86.2024 25.6323C86.4135 25.4396 86.759 25.3047 86.8358 25.0542C87.2197 23.9171 87.5268 22.7415 87.8531 21.5851C87.9875 21.1419 88.0451 20.6793 88.1218 20.2168Z" fill="#5B5353"/>
<path d="M112.998 64.9675C112.557 64.9675 112.096 64.9482 111.654 64.9675C111.482 64.9675 111.155 65.0446 111.155 65.1024C111.136 65.2951 111.194 65.5456 111.29 65.7191C111.808 66.5478 113.017 66.7213 113.919 66.0853C114.092 65.9504 114.246 65.7576 114.438 65.6805C114.572 65.6227 114.802 65.6613 114.937 65.7576C115.013 65.8155 114.975 66.0467 114.956 66.1816C114.956 66.2394 114.898 66.278 114.86 66.3358C114.073 67.3765 112.096 67.55 111.04 66.6827C110.004 65.8347 109.85 64.1002 110.714 63.0402C111.616 61.9417 113.363 61.7875 114.399 62.7511C114.668 63.0017 114.898 63.3486 115.033 63.6955C115.417 64.6591 115.205 64.9675 114.169 64.9867C113.747 64.9675 113.363 64.9675 112.998 64.9675ZM111.002 64.2351C112.038 64.2351 112.921 64.2351 113.804 64.2351C114.226 64.2351 114.303 64.0231 114.092 63.6955C113.747 63.1173 113.228 62.886 112.557 62.9246C111.827 62.9631 111.347 63.3486 111.002 64.2351Z" fill="#5B5353"/>
<path d="M95.013 40.0674C94.9554 40.4721 94.6291 40.6456 94.3412 40.53C94.1492 40.4721 93.9765 40.0867 93.9573 39.8554C93.9573 39.4507 94.0341 39.0267 94.1876 38.6413C94.7251 37.3115 95.2241 35.9624 95.8767 34.6711C96.4334 33.5919 96.7789 32.5126 96.9132 31.3177C97.0092 30.4312 97.1819 29.5447 97.3739 28.6774C97.4507 28.3498 97.3739 27.733 97.8921 27.8101C98.4488 27.9065 98.1033 28.4461 98.0649 28.7738C97.9689 29.4097 97.8154 30.0265 97.7962 30.701C97.9881 30.4505 98.1609 30.1806 98.372 29.9301C98.6407 29.6025 98.8903 29.2748 99.1974 29.005C99.4853 28.7545 99.7732 28.8701 99.7732 29.2748C99.7732 29.6796 99.6964 30.1036 99.6772 30.5083C99.6772 30.6817 99.7348 30.8552 99.754 31.0094L99.7348 30.9901C99.4277 31.8188 98.7367 32.0886 97.9305 32.2428C98.7175 31.5875 99.0822 30.7781 99.0438 29.7374C98.3144 30.1999 97.5083 31.6068 97.2587 32.6861C96.7597 34.7289 96.2798 36.7718 95.7232 38.8147C95.608 39.2772 95.2241 39.6627 94.9746 40.0674C95.4928 38.2751 96.1646 36.5213 96.2414 34.6133C95.3969 36.1937 94.7251 37.8125 94.322 39.5663C94.1876 40.2409 94.3412 40.318 95.013 40.0674Z" fill="#5B5353"/>
<path d="M46.4318 56.2949C45.9711 56.0829 45.4145 55.8709 44.8962 55.5818C44.6275 55.4276 44.6083 55.1192 44.877 54.9458C45.2225 54.7338 45.6064 54.5603 45.9903 54.5218C46.6237 54.464 47.2571 54.5025 47.9097 54.5411C49.023 54.5796 49.7908 54.0207 50.309 53.0956C50.6929 52.4211 50.9808 51.708 51.3647 51.0528C51.5183 50.7829 51.8254 50.4939 52.0941 50.436C52.382 50.3782 52.574 51.1298 52.382 51.5924C52.2669 51.8622 52.1325 52.1127 51.9406 52.3247C51.0384 53.3269 50.1555 54.3291 49.215 55.2734C48.5048 56.025 47.4875 56.0443 46.4318 56.2949Z" fill="#5B5353"/>
<path d="M10.8836 58.2607C9.98149 57.933 9.2521 57.721 8.86821 56.9887C8.08124 55.5432 7.25588 54.0785 6.54568 52.5945C6.33454 52.132 6.35374 51.5346 6.39213 51.0142C6.43052 50.3975 6.58407 49.7808 6.77602 49.1448C7.04474 50.8022 7.31346 52.4596 8.15802 53.9243C8.96419 55.3312 9.90471 56.6996 10.8836 58.2607Z" fill="#5B5353"/>
<path d="M106.913 63.3293C106.414 64.2351 105.992 65.006 105.57 65.7962C105.416 66.0852 105.301 66.3936 105.109 66.6441C104.956 66.8369 104.649 67.1067 104.514 67.0681C104.073 66.9332 104.245 66.5863 104.399 66.278C105.052 65.0638 105.704 63.8496 106.376 62.6548C106.76 61.9802 107.029 61.9802 107.413 62.6933C108.065 63.8689 108.679 65.0638 109.313 66.2394C109.37 66.3551 109.466 66.49 109.447 66.5863C109.428 66.7598 109.351 66.9911 109.236 67.0489C109.121 67.1067 108.89 66.9911 108.775 66.8754C108.622 66.7212 108.545 66.49 108.449 66.2972C107.969 65.3722 107.489 64.4278 106.913 63.3293Z" fill="#5B5353"/>
<path d="M47.6602 53.5967C45.7984 53.3847 44.2436 53.8858 42.7081 54.5218C42.5929 54.5796 42.4585 54.6567 42.3434 54.6374C42.113 54.6182 41.7675 54.5796 41.7099 54.4447C41.6332 54.2713 41.7099 53.8858 41.8443 53.7895C42.3818 53.404 42.9384 52.98 43.5526 52.7873C44.8386 52.4018 46.1247 52.3633 47.2955 53.2113C47.4107 53.2691 47.4683 53.3847 47.6602 53.5967Z" fill="#5B5353"/>
<path d="M92.8438 74.5651C92.7095 75.4709 92.5367 76.2611 92.076 76.9935C91.1739 78.4196 89.3696 78.4775 88.3907 77.1091C87.4502 75.7986 87.4118 73.5244 88.3139 72.1946C89.2737 70.7685 91.3083 70.807 92.1144 72.3295C92.4791 73.0233 92.6135 73.8135 92.8438 74.5651ZM92.364 74.6037C92.3448 73.5052 92.1528 72.8692 91.7305 72.291C90.886 71.1925 89.4656 71.2117 88.6786 72.3488C87.8341 73.5437 87.8725 75.8179 88.7554 76.9742C89.5616 78.0342 90.9628 78.0149 91.7305 76.9164C92.2296 76.2033 92.3448 75.3939 92.364 74.6037Z" fill="#5B5353"/>
<path d="M117.778 62.2308C118.296 62.2308 118.795 62.1922 119.294 62.25C119.486 62.2693 119.64 62.5199 119.832 62.674C119.678 62.7897 119.524 62.9631 119.352 63.0209C119.006 63.1173 118.488 63.0402 118.315 63.2522C118.123 63.4835 118.219 63.9846 118.219 64.3507C118.2 64.8904 118.238 65.43 118.219 65.9696C118.2 66.3358 118.43 66.9525 117.835 66.9718C117.221 66.9911 117.413 66.3743 117.394 66.0082C117.375 65.2758 117.355 64.5435 117.394 63.8111C117.413 63.2522 117.259 62.9631 116.645 63.0017C116.319 63.0209 115.82 63.1366 115.781 62.674C115.743 62.1151 116.281 62.2308 116.645 62.2115C117.01 62.2308 117.394 62.2308 117.778 62.2308Z" fill="#5B5353"/>
<path d="M120.023 74.7001C119.774 75.4517 119.658 76.2226 119.294 76.8778C118.411 78.4967 116.338 78.5353 115.397 76.9357C114.514 75.4517 114.514 73.8521 115.359 72.3681C116.299 70.6914 118.488 70.7492 119.371 72.4645C119.697 73.1197 119.793 73.9099 120.023 74.7001ZM119.658 74.623C119.428 73.9099 119.313 73.1197 118.967 72.4837C118.238 71.1732 116.587 71.1539 115.743 72.3874C114.917 73.6015 114.937 75.7408 115.8 76.9164C116.607 78.0342 118.046 78.0342 118.852 76.9164C119.351 76.2419 119.524 75.4902 119.658 74.623Z" fill="#5B5353"/>
<path d="M103.151 74.8542C103.132 73.6786 103.324 72.8499 103.842 72.1175C104.764 70.8263 106.587 70.8455 107.489 72.1561C108.391 73.4666 108.372 75.7793 107.47 77.0898C106.529 78.4582 104.687 78.4389 103.785 77.032C103.324 76.3189 103.151 75.6444 103.151 74.8542ZM107.95 74.6808C107.739 73.9484 107.624 73.1775 107.278 72.5222C106.568 71.1732 104.936 71.1346 104.073 72.3873C103.228 73.6015 103.286 75.8564 104.188 77.0127C104.975 78.0342 106.357 78.0149 107.124 76.9742C107.624 76.2997 107.796 75.5288 107.95 74.6808Z" fill="#5B5353"/>
<path d="M79.197 76.184C78.2372 76.2997 77.4119 76.1648 76.7401 75.4902C75.7995 74.5459 75.7036 73.0619 76.5289 72.0983C77.4119 71.0575 78.909 70.8648 79.9839 71.6164C81.0972 72.4066 81.4619 73.8906 80.6749 75.0084C79.9455 76.0491 79.0818 76.9935 78.218 77.9378C78.1796 77.1862 78.9282 76.9164 79.197 76.184ZM78.506 75.8757C79.7152 75.8949 80.7133 74.912 80.7133 73.6979C80.7325 72.5415 79.696 71.5008 78.506 71.4815C77.3351 71.443 76.3178 72.4644 76.3178 73.6786C76.3178 74.912 77.2583 75.8564 78.506 75.8757Z" fill="#5B5353"/>
<path d="M99.1205 77.7066C100.003 77.7066 100.656 77.7066 101.328 77.7066C101.328 77.8029 101.328 77.8993 101.328 77.9956C100.522 77.9956 99.7348 78.0342 98.9286 77.9764C98.5063 77.9571 98.6407 77.6487 98.8134 77.4367C99.4276 76.6851 100.042 75.9528 100.637 75.2011C100.867 74.9313 101.078 74.6615 101.27 74.3531C101.923 73.351 101.808 72.3488 100.982 71.8092C100.023 71.1732 98.7558 71.4623 98.1416 72.4452C97.9881 72.6957 97.8345 72.9462 97.6426 73.1775C97.7194 72.1946 98.2952 71.4623 99.1589 71.2695C100.119 71.0575 101.021 71.1732 101.673 72.0019C102.192 72.6572 102.192 73.6015 101.616 74.4302C101.059 75.2397 100.387 75.9913 99.7731 76.7622C99.6196 76.9935 99.4469 77.244 99.1205 77.7066Z" fill="#5B5353"/>
<path d="M112.998 77.9764C112.192 77.9764 111.386 77.9956 110.58 77.9764C110.215 77.9571 110.292 77.7066 110.445 77.5138C110.791 77.0513 111.175 76.6273 111.52 76.1648C112.038 75.4902 112.633 74.835 113.075 74.1026C113.632 73.1775 113.382 72.2332 112.595 71.7514C111.655 71.1925 110.407 71.5201 109.831 72.4452C109.678 72.6957 109.562 72.9655 109.332 73.1583C109.39 72.2139 109.908 71.6165 110.752 71.2888C111.635 70.9612 112.749 71.231 113.286 71.9055C113.843 72.5994 113.9 73.4088 113.44 74.1412C112.902 75.0084 112.23 75.7793 111.616 76.5887C111.386 76.8778 111.155 77.1862 110.81 77.6102C111.655 77.6487 112.326 77.6873 113.017 77.7066C113.017 77.8029 113.017 77.8993 112.998 77.9764Z" fill="#5B5353"/>
<path d="M83.9185 77.6873C84.5711 77.6873 85.2237 77.6873 85.8571 77.6873C85.4733 77.9764 83.8417 78.092 83.4962 77.9764C83.1123 77.8415 83.2275 77.6102 83.4003 77.3982C83.8033 76.8971 84.2256 76.4153 84.6095 75.9142C85.051 75.3553 85.5116 74.835 85.8955 74.2375C86.529 73.2546 86.3562 72.3296 85.5308 71.7899C84.6479 71.2118 83.4003 71.4623 82.8052 72.3103C82.6133 72.5801 82.4597 72.8885 82.2102 73.3317C82.287 72.291 82.786 71.5587 83.5922 71.3081C84.5327 71.019 85.4541 71.0961 86.1643 71.867C86.7593 72.503 86.8169 73.2546 86.4522 74.0063C86.2602 74.411 85.9915 74.7771 85.7228 75.1241C85.1278 75.8949 84.4943 76.6658 83.8609 77.4175C83.8801 77.5138 83.8993 77.6102 83.9185 77.6873Z" fill="#5B5353"/>
<path d="M72.7664 71.3081C73.0159 71.2888 73.2462 71.2888 73.4957 71.2696C73.8796 71.231 74.0908 71.3852 74.0908 71.8092C74.0908 73.8135 74.0908 75.8371 74.0908 77.8415C74.014 77.8608 73.9564 77.8608 73.8796 77.88C73.8412 77.668 73.7645 77.4753 73.7645 77.2633C73.7453 75.8179 73.7645 74.3917 73.7645 72.9463C73.7453 71.7706 73.7453 71.7706 72.7664 71.3081Z" fill="#5B5353"/>
<path d="M66.8353 13.7413C66.8737 14.2231 66.8737 14.6856 66.9696 15.1289C67.1808 16.1503 67.5455 16.3623 68.6588 16.1118C68.4476 16.2852 68.3133 16.4201 68.1597 16.5165C67.0848 17.1718 66.509 16.902 66.2786 15.6878C66.1059 14.6856 66.2019 14.3194 66.8353 13.7413Z" fill="#5B5353"/>
<path d="M11.0561 52.8451C10.4035 54.1171 11.3248 54.9843 11.7087 56.0443C11.5552 55.9479 11.344 55.8709 11.2289 55.7167C10.9601 55.312 10.7298 54.888 10.5187 54.464C10.0772 53.5582 10.0964 53.5196 11.0561 52.8451Z" fill="#5B5353"/>
<path d="M40.7889 55.0614C39.6948 55.2927 39.4453 55.1 38.927 53.7123C39.7908 53.8665 40.2706 54.4061 40.7889 55.0614Z" fill="#5B5353"/>
<path d="M76.9895 17.3067C76.7783 16.9791 76.5864 16.7863 76.6248 16.7092C76.7208 16.478 76.9127 16.2852 77.0663 16.0732C77.1622 16.1889 77.335 16.3045 77.3158 16.4009C77.2774 16.6514 77.143 16.8827 76.9895 17.3067Z" fill="#5B5353"/>
<path d="M78.2179 16.9212C78.0452 16.6129 77.8724 16.4394 77.8916 16.3238C77.9684 16.0925 78.1603 15.8998 78.2947 15.6685C78.4099 15.7842 78.621 15.9383 78.6018 16.0347C78.5442 16.3045 78.3907 16.5358 78.2179 16.9212Z" fill="#5B5353"/>
<path d="M95.9532 76.7815C95.3006 76.7815 94.648 76.7815 93.9954 76.7815C93.9954 76.7429 93.9954 76.6851 93.9954 76.6466C94.648 76.6466 95.3006 76.6466 95.9532 76.6466C95.9532 76.6851 95.9532 76.7429 95.9532 76.7815Z" fill="#5B5353"/>
<path d="M121.021 21.0262C121.175 20.6793 121.328 20.3324 121.463 19.9855C121.578 20.4481 121.424 20.8142 121.06 21.0648C121.079 21.0648 121.021 21.0262 121.021 21.0262Z" fill="#5B5353"/>
</g>
<defs>
<clipPath id="clip0">
<rect width="122" height="80" fill="white"/>
</clipPath>
</defs>
</svg>
