<svg width="80" height="80" viewBox="0 0 80 80" fill="none" xmlns="http://www.w3.org/2000/svg">
<path d="M43.8095 79.9999V78.8177C34.0274 78.8033 24.6363 74.8427 17.6327 67.7779C10.6291 60.7131 6.56511 51.1011 6.30476 40.9852H11.4286L5.71429 34.0886L0 40.9852H5.17143C5.42708 51.4146 9.60867 61.3287 16.8256 68.6159C24.0425 75.9032 33.7245 79.9879 43.8095 79.9999Z" fill="#5B5353"/>
<path d="M36.1904 0V1.18227C45.9726 1.19664 55.3636 5.1572 62.3673 12.222C69.3709 19.2869 73.4348 28.8989 73.6952 39.0147H68.5714L74.2857 45.9113L80 39.0147H74.8285C74.5729 28.5853 70.3913 18.6713 63.1744 11.384C55.9574 4.09669 46.2754 0.0120538 36.1904 0Z" fill="#5B5353"/>
<path d="M78.6658 52.2166H39.4277V73.1032H78.6658V52.2166ZM77.523 71.921H40.5706V53.3988H77.523V71.921Z" fill="#5B5353"/>
<path d="M32.7617 65.6158H33.9046V46.5025H71.4284V45.3202H32.7617V65.6158Z" fill="#5B5353"/>
<path d="M59.0472 69.1625C61.9043 69.1625 64.19 66.2068 64.19 62.66C64.19 59.1132 61.9043 56.1575 59.0472 56.1575C56.19 56.1575 53.9043 59.1132 53.9043 62.66C53.9043 66.2068 56.19 69.1625 59.0472 69.1625ZM59.0472 57.3398C61.2567 57.3398 63.0472 59.724 63.0472 62.66C63.0472 65.596 61.2567 67.9802 59.0472 67.9802C56.8376 67.9802 55.0472 65.6157 55.0472 62.66C55.0472 59.7043 56.8376 57.3398 59.0472 57.3398Z" fill="#5B5353"/>
<path d="M13.333 24.8276C15.7064 24.8276 18.0265 24.0995 19.9999 22.7355C21.9732 21.3714 23.5113 19.4327 24.4196 17.1643C25.3278 14.896 25.5655 12.4 25.1024 9.99198C24.6394 7.58394 23.4965 5.37202 21.8183 3.63592C20.1401 1.89982 18.0019 0.717522 15.6741 0.238533C13.3463 -0.240456 10.9335 0.00537868 8.74081 0.944949C6.54809 1.88452 4.67395 3.47563 3.35537 5.51706C2.0368 7.5585 1.33301 9.95858 1.33301 12.4138C1.33553 15.7053 2.60062 18.8613 4.85051 21.1888C7.1004 23.5163 10.1512 24.825 13.333 24.8276ZM13.333 1.18227C15.4803 1.18227 17.5795 1.84099 19.3649 3.07512C21.1504 4.30926 22.5419 6.06338 23.3637 8.11567C24.1855 10.168 24.4005 12.4263 23.9815 14.605C23.5626 16.7837 22.5286 18.7849 21.0102 20.3557C19.4918 21.9264 17.5572 22.9961 15.4511 23.4295C13.3451 23.8629 11.162 23.6404 9.17816 22.7904C7.19428 21.9403 5.49862 20.5007 4.30562 18.6537C3.11263 16.8067 2.47587 14.6352 2.47587 12.4138C2.47839 9.43581 3.62307 6.58054 5.65863 4.47479C7.6942 2.36904 10.4543 1.18488 13.333 1.18227Z" fill="#5B5353"/>
<path d="M29.7337 14.3842C31.09 16.2346 31.8197 18.4955 31.8099 20.8177C31.8048 23.6581 30.7112 26.3806 28.7688 28.3881C26.8264 30.3957 24.1937 31.5245 21.448 31.5271C19.2064 31.535 17.0246 30.7804 15.2384 29.3793L14.5527 30.3645C16.7702 32.0994 19.52 32.9449 22.2935 32.7447C25.067 32.5445 27.6766 31.312 29.6396 29.2753C31.6026 27.2386 32.7863 24.5354 32.9717 21.6656C33.157 18.7959 32.3316 15.9538 30.648 13.665L29.7337 14.3842Z" fill="#5B5353"/>
<path d="M13.885 7.67502H12.7422V17.1134H13.885V7.67502Z" fill="#5B5353"/>
</svg>
