<svg width="80" height="80" viewBox="0 0 80 80" fill="none" xmlns="http://www.w3.org/2000/svg">
<path d="M58.7191 73.1035H78.8176V78.8177H54.3842V51.2316H35.665V47.8818C35.6616 46.4916 35.1345 45.1537 34.1886 44.1348C33.2428 43.1159 31.9477 42.4908 30.5615 42.3843C31.4734 41.681 32.1424 40.7099 32.4747 39.6073C32.807 38.5046 32.7858 37.3256 32.4143 36.2356C32.0428 35.1455 31.3395 34.199 30.403 33.5288C29.4665 32.8586 28.3437 32.4982 27.1921 32.4982C26.0404 32.4982 24.9177 32.8586 23.9812 33.5288C23.0447 34.199 22.3414 35.1455 21.9698 36.2356C21.5983 37.3256 21.5772 38.5046 21.9095 39.6073C22.2417 40.7099 22.9107 41.681 23.8226 42.3843C22.4365 42.4908 21.1414 43.1159 20.1955 44.1348C19.2497 45.1537 18.7225 46.4916 18.7192 47.8818V51.2316H0V80H79.9999V71.9212H58.7191V73.1035ZM22.8571 38.0296C22.8571 37.1722 23.1114 36.3341 23.5877 35.6212C24.064 34.9084 24.741 34.3527 25.5332 34.0246C26.3253 33.6965 27.1969 33.6107 28.0378 33.7779C28.8787 33.9452 29.6511 34.3581 30.2574 34.9643C30.8636 35.5706 31.2765 36.343 31.4438 37.1839C31.611 38.0248 31.5252 38.8964 31.1971 39.6885C30.869 40.4806 30.3133 41.1577 29.6005 41.634C28.8876 42.1103 28.0495 42.3646 27.1921 42.3646C26.0424 42.3646 24.9398 41.9079 24.1268 41.0949C23.3138 40.2819 22.8571 39.1793 22.8571 38.0296ZM19.9014 47.8818C19.9014 46.7321 20.3582 45.6295 21.1711 44.8165C21.9841 44.0036 23.0867 43.5468 24.2364 43.5468H30.1477C31.2974 43.5468 32.4001 44.0036 33.213 44.8165C34.026 45.6295 34.4827 46.7321 34.4827 47.8818V51.2316H19.9014V47.8818ZM53.2019 78.8177H1.18227V52.4138H53.2019V78.8177Z" fill="#5B5353"/>
<path d="M46.8961 61.0836H7.4873V62.2659H46.8961V61.0836Z" fill="#5B5353"/>
<path d="M73.4978 36.0591C73.3251 35.9136 73.1229 35.8074 72.9052 35.7479C72.6874 35.6883 72.4593 35.6768 72.2367 35.7143C70.4442 36.0294 68.6105 36.0294 66.818 35.7143C66.6047 35.6855 66.3877 35.7013 66.1808 35.7607C65.9739 35.82 65.7816 35.9216 65.616 36.0591C65.4399 36.2081 65.2984 36.3937 65.2014 36.603C65.1045 36.8123 65.0543 37.0402 65.0544 37.2709V45.3201H63.6456C62.967 45.3227 62.3169 45.5935 61.8371 46.0733C61.3573 46.5531 61.0866 47.2031 61.084 47.8817V61.6748C61.0866 62.3534 61.3573 63.0034 61.8371 63.4832C62.3169 63.9631 62.967 64.2338 63.6456 64.2364H64.0396V67.5861H65.2219V64.2364H73.8918V67.5861H75.0741V64.2364H75.4682C76.1468 64.2338 76.7968 63.9631 77.2766 63.4832C77.7565 63.0034 78.0272 62.3534 78.0298 61.6748V47.8817C78.0272 47.2031 77.7565 46.5531 77.2766 46.0733C76.7968 45.5935 76.1468 45.3227 75.4682 45.3201H74.0889V37.2709C74.0854 37.0379 74.0307 36.8085 73.9285 36.5991C73.8263 36.3896 73.6793 36.2052 73.4978 36.0591ZM66.2071 37.2709C66.2069 37.2131 66.2191 37.1559 66.2429 37.1032C66.2667 37.0505 66.3015 37.0035 66.3451 36.9655C66.3868 36.9303 66.4359 36.905 66.4888 36.8913C66.5417 36.8777 66.5969 36.8761 66.6505 36.8867C68.5736 37.2217 70.5402 37.2217 72.4633 36.8867C72.5168 36.8761 72.5721 36.8777 72.6249 36.8913C72.6778 36.905 72.7269 36.9303 72.7687 36.9655C72.8122 37.0035 72.847 37.0505 72.8708 37.1032C72.8946 37.1559 72.9068 37.2131 72.9066 37.2709V45.3201H66.2071V37.2709ZM75.4682 46.5024C75.834 46.5024 76.1848 46.6477 76.4435 46.9064C76.7022 47.1651 76.8475 47.5159 76.8475 47.8817V61.6748C76.8475 62.0406 76.7022 62.3914 76.4435 62.6501C76.1848 62.9088 75.834 63.0541 75.4682 63.0541H63.6456C63.2797 63.0541 62.9289 62.9088 62.6702 62.6501C62.4116 62.3914 62.2662 62.0406 62.2662 61.6748V47.8817C62.2662 47.5159 62.4116 47.1651 62.6702 46.9064C62.9289 46.6477 63.2797 46.5024 63.6456 46.5024H75.4682Z" fill="#5B5353"/>
<path d="M0 23.8423H79.9999V0H0V23.8423ZM1.18227 1.18227H78.8176V22.6601H1.18227V1.18227Z" fill="#5B5353"/>
<path d="M44.9265 7.88191H6.50293V9.06418H44.9265V7.88191Z" fill="#5B5353"/>
<path d="M33.1039 14.7784H6.50293V15.9606H33.1039V14.7784Z" fill="#5B5353"/>
<path d="M68.138 11.409L62.3154 8.04944L61.7243 9.06422L66.5223 11.8425L58.6208 13.9608L52.7982 10.5913L52.207 11.6159L58.4533 15.2218L72.9656 11.3401L72.6602 10.1972L68.138 11.409Z" fill="#5B5353"/>
</svg>
