<svg width="80" height="80" viewBox="0 0 80 80" fill="none" xmlns="http://www.w3.org/2000/svg">
<path d="M75.4679 52.2168C74.8351 52.2191 74.2098 52.3545 73.6327 52.6142C73.0556 52.8739 72.5396 53.2521 72.1181 53.7242V43.4483C72.1253 40.8543 71.2093 38.3422 69.5339 36.3617C67.8585 34.3812 65.5332 33.0613 62.9738 32.6383C60.4144 32.2153 57.788 32.7167 55.5645 34.0529C53.3409 35.389 51.6653 37.4727 50.8374 39.9311C50.1019 37.7703 48.7093 35.8935 46.8544 34.5633C44.9995 33.233 42.7752 32.516 40.4926 32.5124H39.5074C37.2248 32.516 35.0005 33.233 33.1456 34.5633C31.2907 35.8935 29.8981 37.7703 29.1626 39.9311C28.3347 37.4727 26.6591 35.389 24.4355 34.0529C22.212 32.7167 19.5856 32.2153 17.0262 32.6383C14.4668 33.0613 12.1414 34.3812 10.4661 36.3617C8.7907 38.3422 7.87465 40.8543 7.88182 43.4483V53.7242C7.27214 53.0397 6.46845 52.5571 5.57772 52.3407C4.68698 52.1242 3.75146 52.1842 2.89566 52.5126C2.03986 52.8411 1.30438 53.4223 0.787106 54.1791C0.269834 54.9358 -0.00469461 55.8322 6.07496e-05 56.7488V80H9.06408V70.1478H70.9359V80H79.9999V56.7488C79.9999 55.5468 79.5224 54.3941 78.6725 53.5442C77.8226 52.6943 76.6699 52.2168 75.4679 52.2168ZM7.88182 78.8177H1.18233V56.7488C1.18233 55.8604 1.53524 55.0084 2.16344 54.3802C2.79164 53.752 3.64366 53.3991 4.53207 53.3991C5.42048 53.3991 6.2725 53.752 6.9007 54.3802C7.5289 55.0084 7.88182 55.8604 7.88182 56.7488V78.8177ZM29.7537 43.4483C29.7563 40.8623 30.7848 38.3829 32.6134 36.5543C34.442 34.7257 36.9213 33.6973 39.5074 33.6947H40.4926C43.0786 33.6973 45.558 34.7257 47.3866 36.5543C49.2152 38.3829 50.2437 40.8623 50.2463 43.4483V45.9114H51.4285V43.4483C51.4285 40.8615 52.4562 38.3806 54.2853 36.5515C56.1145 34.7223 58.5954 33.6947 61.1822 33.6947C63.7691 33.6947 66.2499 34.7223 68.0791 36.5515C69.9083 38.3806 70.9359 40.8615 70.9359 43.4483V54.1872H51.4285V49.8523H50.2463V54.1872H29.7537V43.4483ZM9.06408 43.4483C9.06408 40.8615 10.0917 38.3806 11.9209 36.5515C13.75 34.7223 16.2309 33.6947 18.8178 33.6947C21.4046 33.6947 23.8855 34.7223 25.7147 36.5515C27.5438 38.3806 28.5714 40.8615 28.5714 43.4483V54.1872H9.06408V43.4483ZM70.9359 68.9655H9.06408V62.4532H9.23157C15.7618 64.2501 22.6635 64.1921 29.1626 62.2858L30.3842 62.6207C36.6734 64.3352 43.3069 64.3352 49.596 62.6207L50.8374 62.2858C57.3359 64.2068 64.2413 64.2785 70.7783 62.4926H70.9457L70.9359 68.9655ZM70.9359 56.7488V61.2217L70.4531 61.3498C64.0757 63.09 57.3382 63.0081 51.0049 61.1133L50.8374 61.0641L49.2906 61.4779C43.2021 63.1428 36.7782 63.1428 30.6897 61.4779L29.1626 61.0641L29.0049 61.1133C22.6725 63.0133 15.9335 63.0953 9.55669 61.3498L9.07394 61.2217V56.7488C9.06669 56.2796 8.98693 55.8143 8.83748 55.3695H71.1723C71.0229 55.8143 70.9431 56.2796 70.9359 56.7488ZM78.8176 78.8177H72.1181V56.7488C72.1181 55.8604 72.4711 55.0084 73.0993 54.3802C73.7275 53.752 74.5795 53.3991 75.4679 53.3991C76.3563 53.3991 77.2083 53.752 77.8365 54.3802C78.4647 55.0084 78.8176 55.8604 78.8176 56.7488V78.8177Z" fill="#5B5353"/>
<path d="M39.9996 26.798C42.6496 26.798 45.2402 26.0121 47.4437 24.5399C49.6471 23.0676 51.3645 20.9749 52.3786 18.5266C53.3928 16.0782 53.6581 13.3841 53.1411 10.785C52.6241 8.18583 51.348 5.79836 49.4741 3.92448C47.6002 2.0506 45.2127 0.774467 42.6136 0.257464C40.0144 -0.259539 37.3203 0.00580554 34.872 1.01994C32.4237 2.03408 30.331 3.75146 28.8587 5.95492C27.3864 8.15837 26.6006 10.7489 26.6006 13.399C26.6032 16.9518 28.0157 20.3584 30.5279 22.8706C33.0402 25.3829 36.4467 26.7954 39.9996 26.798ZM39.9996 1.18227C42.4158 1.18227 44.7778 1.89877 46.7868 3.24116C48.7959 4.58355 50.3617 6.49154 51.2864 8.72386C52.211 10.9562 52.4529 13.4125 51.9816 15.7824C51.5102 18.1522 50.3466 20.329 48.6381 22.0375C46.9296 23.7461 44.7528 24.9096 42.3829 25.381C40.0131 25.8524 37.5568 25.6104 35.3244 24.6858C33.0921 23.7611 31.1841 22.1953 29.8417 20.1862C28.4993 18.1772 27.7828 15.8152 27.7828 13.399C27.7855 10.1597 29.0734 7.05386 31.3639 4.76335C33.6544 2.47283 36.7603 1.18488 39.9996 1.18227Z" fill="#5B5353"/>
<path d="M45.9116 12.808H40.5914V5.51733H39.4092V13.9902H45.9116V12.808Z" fill="#5B5353"/>
</svg>
