<svg width="80" height="50" viewBox="0 0 80 50" fill="none" xmlns="http://www.w3.org/2000/svg">
<path d="M38.1895 11.0118V30.2389C38.1895 31.0733 38.5565 31.8736 39.2099 32.4636C39.8633 33.0537 40.7495 33.3851 41.6736 33.3851H44.9642V36.3566H46.1256V33.3851H49.4162C50.3402 33.3851 51.2264 33.0537 51.8798 32.4636C52.5332 31.8736 52.9003 31.0733 52.9003 30.2389V11.0118C52.9003 10.1774 52.5332 9.37715 51.8798 8.78712C51.2264 8.19708 50.3402 7.8656 49.4162 7.8656H46.1256V2.27228H44.9642V7.8656H41.6736C40.7495 7.8656 39.8633 8.19708 39.2099 8.78712C38.5565 9.37715 38.1895 10.1774 38.1895 11.0118ZM39.3508 11.0118C39.3534 10.4563 39.5989 9.92409 40.034 9.53123C40.469 9.13837 41.0584 8.91665 41.6736 8.91435H49.4162C50.0314 8.91665 50.6207 9.13837 51.0558 9.53123C51.4908 9.92409 51.7364 10.4563 51.7389 11.0118V30.2389C51.7364 30.7945 51.4908 31.3266 51.0558 31.7195C50.6207 32.1124 50.0314 32.3341 49.4162 32.3364H41.6736C41.0584 32.3341 40.469 32.1124 40.034 31.7195C39.5989 31.3266 39.3534 30.7945 39.3508 30.2389V11.0118Z" fill="#5B5353"/>
<path d="M58.5137 27.617V30.2389C58.5137 31.0733 58.8807 31.8736 59.5342 32.4636C60.1876 33.0537 61.0738 33.3851 61.9978 33.3851H65.2884V36.3566H66.4498V33.3851H69.7404C70.6644 33.3851 71.5506 33.0537 72.2041 32.4636C72.8575 31.8736 73.2245 31.0733 73.2245 30.2389V15.3816C73.2245 14.5472 72.8575 13.7469 72.2041 13.1569C71.5506 12.5669 70.6644 12.2354 69.7404 12.2354H66.4498V6.64206H65.2884V12.2354H61.9978C61.0738 12.2354 60.1876 12.5669 59.5342 13.1569C58.8807 13.7469 58.5137 14.5472 58.5137 15.3816V24.1212H59.6751V15.3816C59.6776 14.826 59.9231 14.2939 60.3582 13.901C60.7932 13.5082 61.3826 13.2864 61.9978 13.2841H69.7404C70.3556 13.2864 70.945 13.5082 71.38 13.901C71.8151 14.2939 72.0606 14.826 72.0632 15.3816V30.2389C72.0606 30.7945 71.8151 31.3266 71.38 31.7195C70.945 32.1124 70.3556 32.3341 69.7404 32.3364H61.9978C61.3826 32.3341 60.7932 32.1124 60.3582 31.7195C59.9231 31.3266 59.6776 30.7945 59.6751 30.2389V27.617H58.5137Z" fill="#5B5353"/>
<path d="M24.64 2.27228V7.8656H21.3494C20.4253 7.8656 19.5391 8.19708 18.8857 8.78712C18.2323 9.37715 17.8652 10.1774 17.8652 11.0118V30.2389C17.8652 31.0733 18.2323 31.8736 18.8857 32.4636C19.5391 33.0537 20.4253 33.3851 21.3494 33.3851H24.64V36.3566H25.8014V33.3851H29.0919C29.5495 33.3851 30.0026 33.3038 30.4253 33.1456C30.848 32.9875 31.2321 32.7558 31.5556 32.4636C31.8791 32.1715 32.1358 31.8246 32.3109 31.4429C32.486 31.0612 32.5761 30.6521 32.5761 30.2389V11.0118C32.5761 10.5987 32.486 10.1896 32.3109 9.80783C32.1358 9.42611 31.8791 9.07927 31.5556 8.78712C31.2321 8.49496 30.848 8.26321 30.4253 8.10509C30.0026 7.94698 29.5495 7.8656 29.0919 7.8656H25.8014V2.27228H24.64ZM29.0919 8.91435C29.7072 8.91665 30.2965 9.13837 30.7316 9.53123C31.1666 9.92409 31.4122 10.4563 31.4147 11.0118V30.2389C31.4122 30.7945 31.1666 31.3266 30.7316 31.7195C30.2965 32.1124 29.7072 32.3341 29.0919 32.3364H21.3494C20.7341 32.3341 20.1448 32.1124 19.7098 31.7195C19.2747 31.3266 19.0292 30.7945 19.0266 30.2389V11.0118C19.0292 10.4563 19.2747 9.92409 19.7098 9.53123C20.1448 9.13837 20.7341 8.91665 21.3494 8.91435H29.0919Z" fill="#5B5353"/>
<path d="M73.6124 40.202H17.2272C15.8804 40.2032 14.5851 39.7349 13.6115 38.8947C12.6378 38.0545 12.0608 36.9073 12.001 35.6924L10.2976 0.926394L0.116139 0L0 1.04875L9.17493 1.87027L10.8493 35.7361C10.9168 37.2215 11.6188 38.6256 12.8079 39.6537C13.997 40.6819 15.5809 41.2543 17.2272 41.2508H18.0111C17.1225 41.8784 16.4729 42.7408 16.1529 43.7177C15.8329 44.6946 15.8585 45.7373 16.2261 46.7004C16.5936 47.6636 17.2849 48.4991 18.2034 49.0906C19.1219 49.6821 20.222 50 21.3501 50C22.4783 50 23.5783 49.6821 24.4968 49.0906C25.4154 48.4991 26.1066 47.6636 26.4742 46.7004C26.8417 45.7373 26.8673 44.6946 26.5473 43.7177C26.2273 42.7408 25.5777 41.8784 24.6891 41.2508H63.4987C62.61 41.8784 61.9604 42.7408 61.6404 43.7177C61.3205 44.6946 61.346 45.7373 61.7136 46.7004C62.0812 47.6636 62.7724 48.4991 63.6909 49.0906C64.6095 49.6821 65.7095 50 66.8376 50C67.9658 50 69.0658 49.6821 69.9844 49.0906C70.9029 48.4991 71.5941 47.6636 71.9617 46.7004C72.3293 45.7373 72.3548 44.6946 72.0349 43.7177C71.7149 42.7408 71.0653 41.8784 70.1766 41.2508H73.6124C75.3057 41.2484 76.9289 40.64 78.1263 39.5588C79.3236 38.4775 79.9974 37.0117 80 35.4826H78.8386C78.8386 36.1024 78.7034 36.7161 78.4408 37.2887C78.1782 37.8612 77.7932 38.3815 77.3079 38.8197C76.8226 39.258 76.2465 39.6056 75.6124 39.8428C74.9783 40.0799 74.2987 40.202 73.6124 40.202ZM25.6085 45.0962C25.6085 45.8567 25.3588 46.6002 24.8908 47.2326C24.4229 47.8649 23.7579 48.3578 22.9797 48.6489C22.2016 48.9399 21.3454 49.0161 20.5193 48.8677C19.6933 48.7193 18.9345 48.3531 18.339 47.8153C17.7434 47.2775 17.3378 46.5923 17.1735 45.8464C17.0092 45.1004 17.0935 44.3273 17.4159 43.6246C17.7382 42.9219 18.284 42.3214 18.9843 41.8988C19.6846 41.4763 20.5079 41.2508 21.3501 41.2508C22.4795 41.2508 23.5627 41.6559 24.3613 42.3771C25.1599 43.0982 25.6085 44.0763 25.6085 45.0962ZM71.0961 45.0962C71.0961 45.8567 70.8463 46.6002 70.3784 47.2326C69.9105 47.8649 69.2454 48.3578 68.4673 48.6489C67.6891 48.9399 66.8329 49.0161 66.0069 48.8677C65.1808 48.7193 64.4221 48.3531 63.8265 47.8153C63.231 47.2775 62.8254 46.5923 62.6611 45.8464C62.4968 45.1004 62.5811 44.3273 62.9034 43.6246C63.2257 42.9219 63.7715 42.3214 64.4718 41.8988C65.1721 41.4763 65.9954 41.2508 66.8376 41.2508C67.967 41.2508 69.0502 41.6559 69.8488 42.3771C70.6474 43.0982 71.0961 44.0763 71.0961 45.0962Z" fill="#5B5353"/>
</svg>
