<svg width="80" height="80" viewBox="0 0 80 80" fill="none" xmlns="http://www.w3.org/2000/svg">
<path d="M39.9999 0C36.4964 0 33.0715 1.07475 30.1584 3.08834C27.2453 5.10194 24.9748 7.96393 23.6341 11.3124C22.2933 14.6609 21.9425 18.3455 22.626 21.9002C23.3095 25.4549 24.9967 28.7202 27.474 31.283C29.9514 33.8458 33.1078 35.5911 36.544 36.2982C39.9803 37.0053 43.542 36.6424 46.7789 35.2554C50.0158 33.8684 52.7824 31.5196 54.7288 28.5061C56.6753 25.4925 57.7142 21.9495 57.7142 18.3251C57.7092 13.4666 55.8412 8.80857 52.5203 5.37307C49.1993 1.93757 44.6965 0.00521582 39.9999 0ZM39.9999 35.468C36.7224 35.468 33.5185 34.4626 30.7933 32.5789C28.0682 30.6952 25.9442 28.0179 24.6899 24.8854C23.4357 21.753 23.1075 18.3061 23.7469 14.9807C24.3863 11.6553 25.9646 8.60078 28.2822 6.2033C30.5997 3.80583 33.5525 2.17313 36.767 1.51166C39.9816 0.850201 43.3135 1.18969 46.3415 2.48719C49.3696 3.7847 51.9577 5.98194 53.7786 8.80107C55.5995 11.6202 56.5714 14.9346 56.5714 18.3251C56.5638 22.8693 54.8155 27.2251 51.7094 30.4384C48.6032 33.6516 44.3926 35.4602 39.9999 35.468Z" fill="#5B5353"/>
<path d="M40.5713 6.50256H39.4285V18.9164H48.5713V17.7341H40.5713V6.50256Z" fill="#5B5353"/>
<path d="M72 70.1478H78.6667V63.6453C78.6642 62.9667 78.4025 62.3167 77.9386 61.8369C77.4748 61.357 76.8464 61.0863 76.1905 61.0837H75.8095V48.867C75.807 47.1432 75.144 45.4908 73.9657 44.2719C72.7874 43.053 71.1901 42.3671 69.5238 42.3645H65.7143C64.048 42.3671 62.4506 43.053 61.2724 44.2719C60.0941 45.4908 59.4311 47.1432 59.4286 48.867V56.7488H60.5714V48.867C60.5714 47.456 61.1133 46.1027 62.0777 45.105C63.0422 44.1073 64.3503 43.5468 65.7143 43.5468H69.5238C70.8878 43.5468 72.1959 44.1073 73.1604 45.105C74.1248 46.1027 74.6667 47.456 74.6667 48.867V61.0837H59.0476C58.3917 61.0863 57.7633 61.357 57.2995 61.8369C56.8356 62.3167 56.5739 62.9667 56.5714 63.6453V65.0246H51.0476V63.6453C51.0451 62.9667 50.7834 62.3167 50.3196 61.8369C49.8558 61.357 49.2274 61.0863 48.5714 61.0837H48.1905V48.867C48.188 47.1432 47.5249 45.4908 46.3466 44.2719C45.1684 43.053 43.5711 42.3671 41.9048 42.3645H38.0952C36.4289 42.3671 34.8316 43.053 33.6534 44.2719C32.4751 45.4908 31.812 47.1432 31.8095 48.867V61.0837H31.4286C30.7726 61.0863 30.1442 61.357 29.6804 61.8369C29.2166 62.3167 28.9549 62.9667 28.9524 63.6453V65.0246H23.4286V63.6453C23.4261 62.9667 23.1644 62.3167 22.7005 61.8369C22.2367 61.357 21.6083 61.0863 20.9524 61.0837H20.5714V48.867C20.5689 47.1432 19.9059 45.4908 18.7276 44.2719C17.5493 43.053 15.952 42.3671 14.2857 42.3645H10.4762C8.80989 42.3671 7.21256 43.053 6.0343 44.2719C4.85605 45.4908 4.19299 47.1432 4.19048 48.867V61.0837H3.80952C3.15357 61.0863 2.5252 61.357 2.06136 61.8369C1.59753 62.3167 1.33584 62.9667 1.33333 63.6453V70.1478H8V78.8177H0V80H80V78.8177H72V70.1478ZM57.7143 63.6453C57.7143 63.2795 57.8548 62.9287 58.1048 62.67C58.3549 62.4113 58.694 62.266 59.0476 62.266H76.1905C76.5441 62.266 76.8832 62.4113 77.1333 62.67C77.3833 62.9287 77.5238 63.2795 77.5238 63.6453V68.9655H57.7143V63.6453ZM32.9524 48.867C32.9524 47.456 33.4942 46.1027 34.4587 45.105C35.4232 44.1073 36.7313 43.5468 38.0952 43.5468H41.9048C43.2687 43.5468 44.5768 44.1073 45.5413 45.105C46.5058 46.1027 47.0476 47.456 47.0476 48.867V61.0837H32.9524V48.867ZM30.0952 63.6453C30.0952 63.2795 30.2357 62.9287 30.4858 62.67C30.7358 62.4113 31.0749 62.266 31.4286 62.266H48.5714C48.925 62.266 49.2642 62.4113 49.5142 62.67C49.7643 62.9287 49.9048 63.2795 49.9048 63.6453V68.9655H30.0952V63.6453ZM2.47619 68.9655V63.6453C2.47619 63.4642 2.51068 63.2848 2.57768 63.1175C2.64469 62.9501 2.7429 62.7981 2.86671 62.67C2.99053 62.5419 3.13751 62.4403 3.29928 62.371C3.46105 62.3017 3.63443 62.266 3.80952 62.266H8.57143V61.0837H5.33333V48.867C5.33333 47.456 5.87517 46.1027 6.83964 45.105C7.80411 44.1073 9.11222 43.5468 10.4762 43.5468H14.2857C15.6497 43.5468 16.9578 44.1073 17.9223 45.105C18.8867 46.1027 19.4286 47.456 19.4286 48.867V61.0837H13.3333V62.266H20.9524C21.306 62.266 21.6451 62.4113 21.8952 62.67C22.1452 62.9287 22.2857 63.2795 22.2857 63.6453V68.9655H2.47619ZM15.619 78.8177H9.14286V70.1478H15.619V78.8177ZM35.619 78.8177H16.7619V70.1478H23.4286V66.2069H28.9524V70.1478H35.619V78.8177ZM43.2381 78.8177H36.7619V70.1478H43.2381V78.8177ZM63.2381 78.8177H44.381V70.1478H51.0476V66.2069H56.5714V70.1478H63.2381V78.8177ZM70.8571 78.8177H64.381V70.1478H70.8571V78.8177Z" fill="#5B5353"/>
</svg>
