<svg width="80" height="80" viewBox="0 0 80 80" fill="none" xmlns="http://www.w3.org/2000/svg">
<path d="M54.323 80H62.2183C62.6371 80 63.0387 79.8322 63.3349 79.5335C63.631 79.2349 63.7974 78.8298 63.7974 78.4074V52.9757L56.4251 38.2442H56.1291C52.5315 37.6927 48.9079 37.3306 45.273 37.1593L45.2138 38.3537C48.6779 38.5229 52.1222 38.8613 55.606 39.3491L62.5736 53.2843V54.8968L55.5863 54.5185C47.4146 54.0905 39.1147 54.0109 30.9134 54.2796V55.4741C39.0653 55.2053 47.3357 55.285 55.4777 55.713L62.5637 56.0912V69.8472H18.3994V56.0812L25.4854 55.703L25.4262 54.5185L18.3994 54.8868V53.2644L25.367 39.3292C30.3785 38.5731 35.4389 38.1938 40.5062 38.1944V37C35.2762 36.9995 30.0536 37.3987 24.8834 38.1944H24.5873L17.2743 52.8563L17.2151 52.9757V78.4074C17.2151 78.8298 17.3815 79.2349 17.6776 79.5335C17.9737 79.8322 18.3754 80 18.7941 80H26.6895C27.1082 80 27.5099 79.8322 27.806 79.5335C28.1021 79.2349 28.2685 78.8298 28.2685 78.4074V71.0417H52.7439V78.4074C52.7439 78.8298 52.9103 79.2349 53.2064 79.5335C53.5026 79.8322 53.9042 80 54.323 80ZM53.9282 71.0417H62.6131V78.4074C62.6131 78.513 62.5715 78.6143 62.4975 78.6889C62.4234 78.7636 62.323 78.8056 62.2183 78.8056H54.323C54.2183 78.8056 54.1179 78.7636 54.0439 78.6889C53.9698 78.6143 53.9282 78.513 53.9282 78.4074V71.0417ZM27.0842 78.4074C27.0842 78.513 27.0426 78.6143 26.9686 78.6889C26.8946 78.7636 26.7941 78.8056 26.6895 78.8056H18.7941C18.6895 78.8056 18.589 78.7636 18.515 78.6889C18.441 78.6143 18.3994 78.513 18.3994 78.4074V71.0417H27.0842V78.4074Z" fill="#5B5353"/>
<path d="M23.2913 62.4793C23.2872 62.9746 23.4321 63.46 23.7078 63.8738C23.9834 64.2877 24.3774 64.6113 24.8396 64.8037C25.3018 64.9961 25.8115 65.0486 26.3039 64.9545C26.7964 64.8603 27.2495 64.6239 27.6056 64.2751C27.9618 63.9263 28.205 63.4809 28.3044 62.9954C28.4037 62.5099 28.3548 62.0061 28.1639 61.5481C27.9729 61.0901 27.6484 60.6984 27.2316 60.4228C26.8149 60.1472 26.3246 60 25.823 60C25.1552 60 24.5144 60.2605 24.0402 60.7249C23.566 61.1893 23.2969 61.8199 23.2913 62.4793Z" fill="#5B5353"/>
<path d="M57.7214 62.5206C57.7256 62.0253 57.5806 61.54 57.305 61.1261C57.0293 60.7123 56.6354 60.3887 56.1732 60.1963C55.7109 60.0039 55.2013 59.9514 54.7088 60.0455C54.2164 60.1397 53.7633 60.3761 53.4071 60.7249C53.051 61.0737 52.8078 61.5191 52.7084 62.0046C52.609 62.4901 52.6579 62.9938 52.8489 63.4519C53.0399 63.9099 53.3643 64.3016 53.7811 64.5772C54.1979 64.8528 54.6882 65 55.1898 65C55.5209 65.0013 55.849 64.9383 56.1554 64.8144C56.4618 64.6906 56.7405 64.5083 56.9756 64.2781C57.2107 64.0479 57.3975 63.7742 57.5255 63.4726C57.6535 63.1711 57.72 62.8476 57.7214 62.5206Z" fill="#5B5353"/>
<path d="M17.5058 34C20.8067 33.9939 24.039 33.0838 26.8312 31.3743C29.6235 29.6647 31.8625 27.225 33.2911 24.3354H42.6368L45.3739 21.6777L48.1109 24.3354H52.5897L55.3268 21.6777L58.2529 24.519L62.4929 21.436H65.0308L68.0167 24.3354H73.5207L80 16.9903L73.5207 9.64526H33.2911C31.9371 6.9054 29.8515 4.56806 27.2514 2.8766C24.6513 1.18514 21.6319 0.201386 18.5073 0.0277694C15.3828 -0.145847 12.2674 0.497017 9.48564 1.88943C6.70383 3.28185 4.35727 5.37291 2.69026 7.9449C1.02324 10.5169 0.0967277 13.4758 0.00717097 16.5135C-0.0823858 19.5513 0.668291 22.5568 2.18105 25.2172C3.6938 27.8776 5.91333 30.0956 8.60855 31.6402C11.3038 33.1849 14.3761 33.9998 17.5058 34ZM17.5058 1.14043C20.6433 1.14588 23.7128 2.0282 26.3478 3.68199C28.9828 5.33578 31.0719 7.69114 32.3654 10.4667L32.5247 10.805H72.9633L78.4274 16.9903L72.9633 23.1757H68.5144L65.5285 20.2763H62.0947L58.3724 22.992L55.3268 20.0347L52.0921 23.1757H48.6086L45.3739 20.0347L42.1392 23.1757H32.5247L32.3654 23.5139C31.1563 26.1072 29.2498 28.3362 26.8464 29.9664C24.4431 31.5966 21.6317 32.5678 18.7081 32.7778C15.7844 32.9878 12.8565 32.4288 10.2323 31.1597C7.60812 29.8906 5.38464 27.9582 3.79572 25.5659C2.20681 23.1735 1.3112 20.4096 1.20309 17.5648C1.09498 14.72 1.77837 11.8995 3.18138 9.39996C4.58438 6.9004 6.65516 4.81417 9.17588 3.3607C11.6966 1.90724 14.5741 1.14025 17.5058 1.14043Z" fill="#5B5353"/>
<path d="M17.7214 24C19.2235 24 20.6919 23.5895 21.9409 22.8203C23.1899 22.0511 24.1634 20.9579 24.7382 19.6788C25.313 18.3997 25.4635 16.9922 25.1704 15.6344C24.8773 14.2765 24.154 13.0292 23.0918 12.0503C22.0297 11.0713 20.6764 10.4046 19.2031 10.1345C17.7298 9.86441 16.2027 10.003 14.8149 10.5328C13.4272 11.0627 12.241 11.9599 11.4064 13.111C10.5719 14.2622 10.1265 15.6155 10.1265 17C10.1291 18.8558 10.9301 20.6348 12.3539 21.9471C13.7776 23.2593 15.7079 23.9976 17.7214 24ZM17.7214 11.1053C18.9864 11.1053 20.2229 11.451 21.2747 12.0987C22.3265 12.7464 23.1462 13.6671 23.6303 14.7442C24.1144 15.8213 24.241 17.0065 23.9942 18.15C23.7475 19.2935 23.1383 20.3438 22.2439 21.1682C21.3494 21.9926 20.2098 22.554 18.9691 22.7815C17.7285 23.0089 16.4425 22.8922 15.2739 22.446C14.1052 21.9999 13.1063 21.2443 12.4035 20.2749C11.7008 19.3056 11.3257 18.1659 11.3257 17C11.3283 15.4374 12.003 13.9394 13.2019 12.8345C14.4007 11.7295 16.026 11.1077 17.7214 11.1053Z" fill="#5B5353"/>
</svg>
