<svg width="16" height="16" viewBox="0 0 16 16" fill="none" xmlns="http://www.w3.org/2000/svg">
<path d="M13.4 2H2.6C2.44093 2.00019 2.28842 2.06346 2.17594 2.17594C2.06346 2.28842 2.00019 2.44093 2 2.6V5H2.8V2.8H13.2V13.2H2.8V10.5H2V13.4C2.00019 13.5591 2.06346 13.7116 2.17594 13.8241C2.28842 13.9365 2.44093 13.9998 2.6 14H13.4C13.5591 13.9998 13.7116 13.9365 13.8241 13.8241C13.9365 13.7116 13.9998 13.5591 14 13.4V2.6C13.9998 2.44093 13.9365 2.28842 13.8241 2.17594C13.7116 2.06346 13.5591 2.00019 13.4 2Z" fill="#5B5353"/>
<path d="M5.41214 10.4958L5.92841 11L9 8L5.92841 5L5.41214 5.50421L7.60244 7.64347H1V8.35657H7.60239L5.41214 10.4958Z" fill="#5B5353"/>
</svg>
