<svg width="20" height="20" viewBox="0 0 20 20" fill="none" xmlns="http://www.w3.org/2000/svg">
<path d="M11.5 9C11.7761 9 12 8.77614 12 8.5C12 8.22386 11.7761 8 11.5 8C11.2239 8 11 8.22386 11 8.5C11 8.77614 11.2239 9 11.5 9Z" stroke="#5B5353" stroke-width="1.2" stroke-linecap="round" stroke-linejoin="round"/>
<path d="M10 14C12.2091 14 14 12.2091 14 10C14 7.79086 12.2091 6 10 6C7.79086 6 6 7.79086 6 10C6 12.2091 7.79086 14 10 14Z" stroke="#5B5353" stroke-width="1.2" stroke-linecap="round" stroke-linejoin="round"/>
<path d="M1 10C1 10 4.21429 3 10 3C15.7857 3 19 10 19 10C19 10 15.7857 17 10 17C4.21429 17 1 10 1 10Z" stroke="#5B5353" stroke-width="1.2" stroke-linecap="round" stroke-linejoin="round"/>
</svg>
