<svg width="20" height="16" viewBox="0 0 20 16" fill="none" xmlns="http://www.w3.org/2000/svg">
<path d="M19.7192 5.7013C18.991 6.59846 16.118 7.48606 14.0493 8.09375C14.0493 8.09375 14.0493 8.09375 14.0493 8.1081C13.337 9.94072 12.6235 11.7717 11.9086 13.6012C11.6765 14.1945 11.4504 14.7974 11.2083 15.3788C11.0984 15.6065 10.931 15.7867 10.73 15.8933C10.529 15.9999 10.3049 16.0275 10.0899 15.9721C9.88952 15.9108 9.71371 15.7667 9.59361 15.5653C9.47351 15.3638 9.41687 15.1181 9.43371 14.8716C9.45772 13.1179 9.47773 11.3618 9.51374 9.60817C9.51598 9.58032 9.51598 9.55228 9.51374 9.52443C7.355 10.223 4.66409 11.0891 3.55371 11.4216C3.26994 11.5193 2.96776 11.5084 2.68942 11.3905C2.32129 11.2159 2.15123 10.8642 1.90915 10.4336C1.32495 9.36892 0.708743 8.32581 0.150553 7.24443C0.0883047 7.14953 0.0437765 7.03978 0.0199645 6.92258C-0.00384743 6.80538 -0.00639063 6.68344 0.0125061 6.56497C0.0366124 6.47415 0.0792408 6.39193 0.136548 6.32573C0.26049 6.19651 0.417433 6.12141 0.581706 6.11272C0.745978 6.10402 0.907855 6.16225 1.04086 6.27788C1.68107 6.84249 2.32529 7.40233 2.96351 7.97173C3.00434 8.01229 3.05323 8.03955 3.10546 8.05087C3.15769 8.06219 3.21148 8.05718 3.26161 8.03633C4.85282 7.53391 6.44536 7.02592 8.03924 6.51234C8.15528 6.47645 8.2193 6.44535 8.2093 6.35443C8.20053 6.29981 8.18286 6.24778 8.15728 6.20132C7.40902 4.68929 6.66744 3.17407 5.93252 1.65566C5.81692 1.45053 5.76557 1.20318 5.78753 0.957212C5.80949 0.711241 5.90335 0.482432 6.05256 0.311107C6.21793 0.137429 6.42489 0.0305316 6.644 0.00561912C6.8631 -0.0192934 7.0832 0.0390482 7.27298 0.172345C7.72313 0.545567 8.16528 0.933143 8.61143 1.31594C9.98257 2.49302 11.3524 3.6725 12.7208 4.85437L12.7448 4.87112C12.7756 4.89658 12.8103 4.91447 12.8469 4.92375C12.9056 4.93702 12.9662 4.93208 13.0229 4.9094C13.155 4.85915 15.1557 4.10553 16.3881 3.95242C16.7879 3.91494 17.1897 3.92134 17.5885 3.97155C18.0035 3.98495 18.4161 4.05233 18.8189 4.17252C19.2831 4.32564 19.9193 4.53857 19.9933 4.98595C20.0433 5.30415 19.7992 5.60799 19.7192 5.7013Z" fill="#5EBCD0"/>
</svg>
