<svg width="100" height="50" viewBox="0 0 100 50" fill="none" xmlns="http://www.w3.org/2000/svg">
<g clip-path="url(#clip0)">
<path d="M99.5 25.0059C99.5 31.6197 94.1267 37.742 85.1317 42.2406C76.1665 46.7242 63.7463 49.5118 50 49.5118C36.2537 49.5118 23.8335 46.7242 14.8683 42.2406C5.87329 37.742 0.5 31.6197 0.5 25.0059C0.5 18.3921 5.87329 12.2698 14.8683 7.77125C23.8335 3.28762 36.2537 0.5 50 0.5C63.7463 0.5 76.1665 3.28762 85.1317 7.77125C94.1267 12.2698 99.5 18.3921 99.5 25.0059Z" stroke="#5B5353"/>
<path d="M98.8296 25.0059C98.8296 31.4067 93.5377 37.341 84.6607 41.705C75.8161 46.053 63.5623 48.7565 49.9999 48.7565C36.4375 48.7565 24.1837 46.053 15.3391 41.705C6.46211 37.341 1.17017 31.4067 1.17017 25.0059C1.17017 18.6051 6.46211 12.6708 15.3391 8.30681C24.1837 3.95877 36.4375 1.25525 49.9999 1.25525C63.5623 1.25525 75.8161 3.95877 84.6607 8.30681C93.5377 12.6708 98.8296 18.6051 98.8296 25.0059Z" stroke="#5B5353"/>
<path d="M12.6788 19.2547L12.6788 19.2547C11.2645 18.9893 10.057 18.6006 9.23544 18.2285L6.02116 18.3355C7.53722 19.2291 9.16029 19.9843 10.9852 20.5771L10.9856 20.5772C13.578 21.4213 16.5982 21.9345 20.2978 22.0279M12.6788 19.2547L49.7397 20.7665L49.7391 20.7665C39.6094 21.5221 29.6754 22.2632 20.2978 22.0279M12.6788 19.2547L12.6836 19.2556C13.8381 19.4607 15.147 19.5954 16.5349 19.5223C23.0512 19.2272 28.7557 18.9203 33.9881 18.6371L33.9883 18.6371L34.0184 18.6354C46.3299 17.9635 56.0187 17.4346 67.2889 17.6465C71.0274 17.7168 74.8995 18.0803 78.4612 18.816C80.265 19.198 81.987 19.6734 83.5707 20.2535M12.6788 19.2547L83.5707 20.2535M20.2978 22.0279L20.2852 22.5277L20.2978 22.0279ZM83.5707 20.2535C83.2844 20.2284 82.979 20.1997 82.6705 20.1708C82.2995 20.136 81.924 20.1008 81.5717 20.0708C77.7129 19.7048 74.1459 19.3716 69.1493 19.5617C62.6709 19.7981 56.1707 20.2827 49.74 20.7664L83.5707 20.2535Z" fill="#5B5353" stroke="#5B5353"/>
<path d="M23.7401 25.2216L23.7404 25.2215C31.836 24.6779 38.6267 24.072 44.7872 23.5224C55.2453 22.5893 63.8874 21.8183 74.0141 21.7886L74.0143 21.7886C80.154 21.7681 86.6399 22.5165 91.5739 24.4561C91.1475 24.4615 90.7549 24.46 90.4294 24.4364L90.4256 24.4361C89.9046 24.4023 89.3935 24.368 88.8886 24.3342C84.8188 24.0612 81.1506 23.8151 75.9531 24.058L75.9527 24.058C68.711 24.4018 61.3668 25.1679 54.1003 25.9259C53.1192 26.0283 52.1395 26.1305 51.1617 26.2314C42.9342 27.0811 34.8362 27.8457 27.0901 27.9045C21.0823 27.9462 16.4298 26.6063 12.2702 24.3693L16.1342 24.0854C18.2853 24.9711 20.6962 25.4236 23.7401 25.2216Z" fill="#5B5353" stroke="#5B5353"/>
<path d="M30.17 34.0648C23.6737 34.2751 19.7482 32.9511 15.629 30.8369L19.5445 30.182C21.7599 30.9699 24.5018 31.1543 27.503 30.8131L27.5033 30.813C30.6712 30.4512 33.8665 30.0726 37.0823 29.6915C50.1394 28.1442 63.5354 26.5567 76.8129 25.8947L76.813 25.8947C80.6841 25.7014 84.5997 25.8453 88.0853 26.3446C90.7883 26.7318 93.2109 27.3296 95.1486 28.1365C94.3826 28.1849 93.7169 28.1869 93.0407 28.153L93.0405 28.153C92.8282 28.1424 92.6189 28.132 92.4123 28.1216C87.5397 27.878 84.2007 27.7111 78.6151 28.1896C71.3465 28.8104 64.1006 29.9176 56.973 31.0067C55.9512 31.1629 54.9318 31.3186 53.9151 31.4725C45.7979 32.7014 37.8514 33.8122 30.17 34.0648Z" fill="#5B5353" stroke="#5B5353"/>
</g>
<defs>
<clipPath id="clip0">
<rect width="100" height="50" fill="white"/>
</clipPath>
</defs>
</svg>
