<svg width="120" height="60" viewBox="0 0 120 60" fill="none" xmlns="http://www.w3.org/2000/svg">
<path d="M118.696 30.0071C118.696 37.7472 112.299 44.8941 101.637 50.1357C91.0069 55.3615 76.2867 58.6079 59.9999 58.6079C43.7131 58.6079 28.9928 55.3615 18.3628 50.1357C7.70043 44.8941 1.3042 37.7472 1.3042 30.0071C1.3042 22.267 7.70043 15.1201 18.3628 9.87844C28.9928 4.6527 43.7131 1.40631 59.9999 1.40631C76.2867 1.40631 91.0069 4.6527 101.637 9.87844C112.299 15.1201 118.696 22.267 118.696 30.0071Z" stroke="#E9E9E9"/>
<path d="M15.233 23.0073L15.233 23.0073C13.5298 22.6877 12.0801 22.2189 11.1026 21.7734L6.88167 21.9139C8.79034 23.0662 10.8359 24.0355 13.1514 24.7876L13.1517 24.7877C16.2733 25.8041 19.9074 26.4211 24.3548 26.5334M15.233 23.0073L59.6951 25.0194L59.6914 25.0197C47.5378 25.9263 35.6129 26.8159 24.3548 26.5334M15.233 23.0073L15.2378 23.0082C16.6181 23.2535 18.181 23.4141 19.837 23.3268C27.6562 22.9727 34.5014 22.6045 40.7803 22.2646L40.7805 22.2646L40.8184 22.2626C55.591 21.4562 67.2206 20.8215 80.7486 21.0758C85.2397 21.1603 89.8925 21.5969 94.1739 22.4813C96.578 22.9904 98.863 23.6379 100.936 24.4428M15.233 23.0073L100.936 24.4428M24.3548 26.5334L24.3422 27.0332M24.3548 26.5334L24.3422 27.0332M24.3422 27.0332C35.6252 27.3163 47.5708 26.4252 59.714 25.5194L59.7326 25.518L12.9969 25.2631C16.1719 26.2969 19.8549 26.92 24.3422 27.0332ZM100.936 24.4428C100.729 24.4347 100.535 24.4241 100.356 24.4107C99.9862 24.3787 99.592 24.3417 99.1938 24.3044C98.7504 24.2628 98.3021 24.2207 97.8772 24.1845C93.2469 23.7454 88.972 23.3461 82.9829 23.574C75.211 23.8576 67.4126 24.4389 59.6954 25.0194L100.936 24.4428Z" fill="#E9E9E9" stroke="#E9E9E9"/>
<path d="M28.4814 30.1661L28.4818 30.1661C38.1907 29.5141 46.3376 28.7872 53.7299 28.1277C66.2833 27.0078 76.6607 26.082 88.8166 26.0464L88.8168 26.0464C96.3801 26.0211 104.392 26.9671 110.385 29.4393C109.684 29.4523 109.027 29.461 108.508 29.4234L108.504 29.4232C107.879 29.3826 107.265 29.3414 106.66 29.3008C101.776 28.9732 97.3794 28.6784 91.1483 28.9695L91.1479 28.9695C82.461 29.382 73.6509 30.301 64.9308 31.2106C63.7535 31.3334 62.5778 31.456 61.4043 31.5772C51.5313 32.5969 41.8092 33.5148 32.5084 33.5854C25.1369 33.6366 19.4588 31.9578 14.3772 29.1684L19.3772 28.801C21.9494 29.8638 24.8331 30.4083 28.4814 30.1661Z" fill="#E9E9E9" stroke="#E9E9E9"/>
<path d="M32.9923 36.8763L32.9926 36.8763C36.7931 36.4422 40.6268 35.9879 44.4854 35.5307C60.1542 33.6738 76.2337 31.7683 92.1705 30.9738L92.1456 30.4744L92.1706 30.9738C96.8213 30.7415 101.527 30.9143 105.717 31.5145C109.143 32.0053 112.2 32.7785 114.597 33.8343C113.496 33.9203 112.579 33.9303 111.644 33.8834L111.644 33.8834C111.389 33.8708 111.138 33.8582 110.891 33.8458C105.044 33.5535 101.043 33.3535 94.3466 33.9271C85.6279 34.6718 76.9363 35.9999 68.3829 37.3069C67.1567 37.4942 65.9333 37.6812 64.7131 37.8659C54.9726 39.3405 45.4317 40.6743 36.2076 40.9777C28.25 41.2353 23.4943 39.578 18.4418 36.9552L23.4625 36.1155C26.1062 37.0616 29.3893 37.2859 32.9923 36.8763Z" fill="#E9E9E9" stroke="#E9E9E9"/>
</svg>
