<svg width="50" height="80" viewBox="0 0 50 80" fill="none" xmlns="http://www.w3.org/2000/svg">
<path d="M5.85938 73.0739V75.9606C5.85938 77.0319 6.28122 78.0593 7.03209 78.8169C7.78297 79.5744 8.80138 80 9.86328 80C10.9252 80 11.9436 79.5744 12.6945 78.8169C13.4454 78.0593 13.8672 77.0319 13.8672 75.9606V73.1034H36.1328V75.9606C36.1328 77.0319 36.5546 78.0593 37.3055 78.8169C38.0564 79.5744 39.0748 80 40.1367 80C41.1986 80 42.217 79.5744 42.9679 78.8169C43.7188 78.0593 44.1406 77.0319 44.1406 75.9606V73.0739C45.7415 72.9265 47.23 72.1808 48.314 70.9833C49.398 69.7858 49.9993 68.2228 50 66.601V30.1478C49.9974 28.424 49.3175 26.7716 48.1094 25.5527C46.9012 24.3338 45.2633 23.6479 43.5547 23.6453H35.3516V3.5468C35.3516 3.08103 35.2606 2.61981 35.084 2.1895C34.9073 1.75918 34.6483 1.36818 34.3219 1.03883C33.9954 0.709483 33.6078 0.448228 33.1813 0.269985C32.7548 0.0917414 32.2976 0 31.8359 0H18.1641C17.2317 0 16.3374 0.37368 15.6781 1.03883C15.0188 1.70399 14.6484 2.60613 14.6484 3.5468V23.6453H6.44531C4.7367 23.6479 3.09881 24.3338 1.89064 25.5527C0.68247 26.7716 0.00258294 28.424 0 30.1478V66.601C0.000650494 68.2228 0.601984 69.7858 1.68601 70.9833C2.77004 72.1808 4.25851 72.9265 5.85938 73.0739ZM12.6953 75.9606C12.6953 76.7184 12.3969 77.4451 11.8658 77.9809C11.3347 78.5167 10.6144 78.8177 9.86328 78.8177C9.11218 78.8177 8.39184 78.5167 7.86073 77.9809C7.32962 77.4451 7.03125 76.7184 7.03125 75.9606V73.1034H12.6953V75.9606ZM42.9688 75.9606C42.9688 76.7184 42.6704 77.4451 42.1393 77.9809C41.6082 78.5167 40.8878 78.8177 40.1367 78.8177C39.3856 78.8177 38.6653 78.5167 38.1342 77.9809C37.6031 77.4451 37.3047 76.7184 37.3047 75.9606V73.1034H42.9688V75.9606ZM15.8203 3.5468C15.8229 2.92048 16.0706 2.32056 16.5096 1.87769C16.9486 1.43481 17.5433 1.18486 18.1641 1.18227H31.8359C32.4567 1.18486 33.0514 1.43481 33.4904 1.87769C33.9294 2.32056 34.1771 2.92048 34.1797 3.5468V6.77833C31.139 6.24767 28.0276 6.2844 25 6.8867C23.392 6.56466 21.7565 6.40296 20.1172 6.40394C18.677 6.40585 17.2395 6.53109 15.8203 6.77833V3.5468ZM15.8203 7.9803C18.8197 7.43334 21.8945 7.46342 24.8828 8.06897H25H25.1172C28.1055 7.46342 31.1803 7.43334 34.1797 7.9803V23.6453H15.8203V7.9803ZM1.17188 30.1478C1.17188 28.7368 1.72747 27.3836 2.71643 26.3858C3.70539 25.3881 5.04671 24.8276 6.44531 24.8276H43.5547C44.2472 24.8276 44.9329 24.9652 45.5727 25.2326C46.2125 25.4999 46.7939 25.8918 47.2836 26.3858C47.7733 26.8799 48.1617 27.4664 48.4267 28.1118C48.6917 28.7573 48.8281 29.4491 48.8281 30.1478V66.601C48.8281 67.2996 48.6917 67.9915 48.4267 68.6369C48.1617 69.2824 47.7733 69.8689 47.2836 70.3629C46.7939 70.857 46.2125 71.2488 45.5727 71.5162C44.9329 71.7836 44.2472 71.9212 43.5547 71.9212H6.44531C5.7528 71.9212 5.06706 71.7836 4.42726 71.5162C3.78745 71.2488 3.20611 70.857 2.71643 70.3629C2.22675 69.8689 1.83831 69.2824 1.57329 68.6369C1.30828 67.9915 1.17188 67.2996 1.17188 66.601V30.1478Z" fill="#5B5353"/>
<path d="M40.2344 32.1184H39.0625V60.6898H40.2344V32.1184Z" fill="#5B5353"/>
<path d="M10.9375 36.0593H9.76562V64.6308H10.9375V36.0593Z" fill="#5B5353"/>
<path d="M30.4687 32.1184H29.2969V64.6307H30.4687V32.1184Z" fill="#5B5353"/>
<path d="M20.7031 32.1184H19.5312V64.6307H20.7031V32.1184Z" fill="#5B5353"/>
</svg>
