<svg width="20" height="20" viewBox="0 0 20 20" fill="none" xmlns="http://www.w3.org/2000/svg">
<path d="M18.7342 15.6142L15.5667 12.4467L13.1308 11.44C13.9438 10.2902 14.3787 8.91572 14.375 7.5075V7.5C14.375 3.70917 11.2908 0.625 7.5 0.625C3.70917 0.625 0.625 3.70917 0.625 7.5C0.625 11.2908 3.70917 14.375 7.5 14.375H7.5075C8.93621 14.3771 10.3294 13.9299 11.49 13.0967L11.4692 13.1108L12.4733 15.5408L15.6408 18.7083C15.843 18.9158 16.0843 19.081 16.3508 19.1944C16.6173 19.3079 16.9037 19.3673 17.1934 19.3691C17.483 19.371 17.7701 19.3153 18.0381 19.2054C18.306 19.0954 18.5495 18.9333 18.7543 18.7285C18.9591 18.5237 19.1212 18.2802 19.2312 18.0123C19.3412 17.7443 19.3968 17.4572 19.395 17.1675C19.3931 16.8779 19.3337 16.5915 19.2203 16.325C19.1068 16.0585 18.9416 15.8171 18.7342 15.615V15.6142ZM1.875 7.5C1.875 4.39833 4.39833 1.875 7.5 1.875C10.6017 1.875 13.125 4.39833 13.125 7.5C13.125 10.6017 10.6017 13.125 7.5 13.125C4.39833 13.125 1.875 10.6017 1.875 7.5ZM17.85 17.8233C17.763 17.9105 17.6597 17.9796 17.5459 18.0268C17.4322 18.074 17.3102 18.0983 17.1871 18.0983C17.0639 18.0983 16.942 18.074 16.8283 18.0268C16.7145 17.9796 16.6112 17.9105 16.5242 17.8233L13.5333 14.8325L12.6 12.5733L14.8592 13.5067L17.85 16.4975C17.9372 16.5845 18.0063 16.6878 18.0535 16.8016C18.1007 16.9153 18.1249 17.0373 18.1249 17.1604C18.1249 17.2836 18.1007 17.4055 18.0535 17.5193C18.0063 17.633 17.9372 17.7363 17.85 17.8233Z" fill="#5B5353"/>
</svg>
