<svg width="80" height="80" viewBox="0 0 80 80" fill="none" xmlns="http://www.w3.org/2000/svg">
<path d="M0 80H8.07882V69.0837H71.9212V80H80V42.1901C80.0005 41.3702 79.7546 40.5693 79.2944 39.893C78.8343 39.2166 78.1816 38.6965 77.4223 38.4011C76.6629 38.1057 75.8326 38.0488 75.0406 38.238C74.2486 38.4272 73.532 38.8536 72.9852 39.461C72.807 38.6655 72.4204 37.9325 71.8657 37.3384C71.311 36.7443 70.6084 36.3107 69.8309 36.0828C69.0535 35.8548 68.2297 35.8409 67.445 36.0423C66.6604 36.2437 65.9437 36.6532 65.3695 37.2282L57.0049 45.6634C56.1727 46.505 55.699 47.6402 55.6843 48.8279C55.6696 50.0156 56.115 51.1624 56.9261 52.0246H18.3251C17.4085 52.0198 16.5121 52.2964 15.7554 52.8174C14.9986 53.3384 14.4174 54.0793 14.0889 54.9413C13.7605 55.8033 13.7005 56.7456 13.917 57.6428C14.1334 58.54 14.616 59.3496 15.3005 59.9637H8.07882V54.0987C8.07882 53.0196 7.65324 51.9847 6.8957 51.2216C6.13817 50.4586 5.11073 50.0299 4.03941 50.0299C2.96809 50.0299 1.94065 50.4586 1.18312 51.2216C0.42558 51.9847 0 53.0196 0 54.0987V80ZM56.8571 48.8788C56.8566 48.4358 56.9434 47.9972 57.1125 47.5883C57.2817 47.1795 57.5297 46.8085 57.8424 46.497L66.2069 38.0717C66.8444 37.4601 67.691 37.119 68.5714 37.119C69.4518 37.119 70.2984 37.4601 70.936 38.0717C71.2498 38.3844 71.4985 38.7569 71.6677 39.1676C71.8369 39.5782 71.923 40.0187 71.9212 40.4633C71.9239 40.9066 71.8381 41.3459 71.6689 41.7551C71.4996 42.1642 71.2504 42.5349 70.936 42.8451L62.5813 51.2704C62.253 51.5923 61.8646 51.8453 61.4384 52.0147H58.9852C58.5591 51.8453 58.1706 51.5923 57.8424 51.2704C57.2122 50.6363 56.8578 49.776 56.8571 48.8788ZM1.18227 54.0987C1.18227 53.3354 1.48329 52.6034 2.0191 52.0637C2.55492 51.524 3.28165 51.2208 4.03941 51.2208C4.79717 51.2208 5.5239 51.524 6.05971 52.0637C6.59553 52.6034 6.89655 53.3354 6.89655 54.0987V61.1446H46.8965V59.9538H18.3251C17.8852 59.9538 17.4496 59.8665 17.0432 59.6969C16.6368 59.5274 16.2675 59.2788 15.9565 58.9655C15.6454 58.6522 15.3987 58.2803 15.2304 57.8709C15.062 57.4615 14.9754 57.0228 14.9754 56.5797C14.9754 56.1366 15.062 55.6978 15.2304 55.2885C15.3987 54.8791 15.6454 54.5071 15.9565 54.1938C16.2675 53.8805 16.6368 53.632 17.0432 53.4624C17.4496 53.2928 17.8852 53.2056 18.3251 53.2056H61.6749C62.1148 53.2056 62.5504 53.2928 62.9568 53.4624C63.3632 53.632 63.7325 53.8805 64.0435 54.1938C64.3546 54.5071 64.6013 54.8791 64.7696 55.2885C64.938 55.6978 65.0246 56.1366 65.0246 56.5797C65.0246 57.0228 64.938 57.4615 64.7696 57.8709C64.6013 58.2803 64.3546 58.6522 64.0435 58.9655C63.7325 59.2788 63.3632 59.5274 62.9568 59.6969C62.5504 59.8665 62.1148 59.9538 61.6749 59.9538H54.7783V61.1446H73.1034V56.5797H71.9212V59.9538H64.6995C65.2859 59.4292 65.7258 58.7592 65.9754 58.0102C66.225 57.2613 66.2756 56.4596 66.1221 55.6849C65.9687 54.9102 65.6166 54.1894 65.1008 53.5942C64.5851 52.9991 63.9236 52.5503 63.1823 52.2926C63.2651 52.2386 63.3441 52.179 63.4187 52.1139L71.7734 43.6787C71.8325 43.6191 71.8719 43.5596 71.9212 43.5V51.6177H73.1034V42.1901C73.1034 41.4268 73.4045 40.6948 73.9403 40.1551C74.4761 39.6154 75.2028 39.3122 75.9606 39.3122C76.7184 39.3122 77.4451 39.6154 77.9809 40.1551C78.5167 40.6948 78.8177 41.4268 78.8177 42.1901V78.8091H73.1034V67.8929H6.89655V78.8091H1.18227V54.0987Z" fill="#5B5353"/>
<mask id="path-2-inside-1" fill="white">
<path fill-rule="evenodd" clip-rule="evenodd" d="M15.1769 2.64991C15.1769 1.18635 16.3633 -9.15527e-05 17.8269 -9.15527e-05H22.626C24.0895 -9.15527e-05 25.276 1.18635 25.276 2.64991V13.4217C25.276 14.1673 25.8804 14.7717 26.626 14.7717H37.2911C38.7547 14.7717 39.9411 15.9581 39.9411 17.4217V22.2848C39.9411 23.7483 38.7547 24.9348 37.2911 24.9348H26.626C25.8804 24.9348 25.276 25.5392 25.276 26.2847V37.0565C25.276 38.5201 24.0895 39.7065 22.626 39.7065H17.8269C16.3633 39.7065 15.1769 38.5201 15.1769 37.0565V26.2848C15.1769 25.5392 14.5725 24.9348 13.8269 24.9348H3.16172C1.69816 24.9348 0.511719 23.7483 0.511719 22.2848V17.4217C0.511719 15.9581 1.69816 14.7717 3.16172 14.7717H13.8269C14.5725 14.7717 15.1769 14.1673 15.1769 13.4217V2.64991ZM17.8269 1.29991C17.0813 1.29991 16.4769 1.90432 16.4769 2.64991V13.4217C16.4769 14.8852 15.2904 16.0717 13.8269 16.0717H3.16172C2.41613 16.0717 1.81172 16.6761 1.81172 17.4217V22.2848C1.81172 23.0303 2.41613 23.6348 3.16172 23.6348H13.8269C15.2904 23.6348 16.4769 24.8212 16.4769 26.2848V37.0565C16.4769 37.8021 17.0813 38.4065 17.8269 38.4065H22.626C23.3715 38.4065 23.976 37.8021 23.976 37.0565V26.2847C23.976 24.8212 25.1624 23.6348 26.626 23.6348H37.2911C38.0367 23.6348 38.6411 23.0303 38.6411 22.2848V17.4217C38.6411 16.6761 38.0367 16.0717 37.2911 16.0717H26.626C25.1624 16.0717 23.976 14.8852 23.976 13.4217V2.64991C23.976 1.90432 23.3715 1.29991 22.626 1.29991H17.8269Z"/>
</mask>
<path fill-rule="evenodd" clip-rule="evenodd" d="M15.1769 2.64991C15.1769 1.18635 16.3633 -9.15527e-05 17.8269 -9.15527e-05H22.626C24.0895 -9.15527e-05 25.276 1.18635 25.276 2.64991V13.4217C25.276 14.1673 25.8804 14.7717 26.626 14.7717H37.2911C38.7547 14.7717 39.9411 15.9581 39.9411 17.4217V22.2848C39.9411 23.7483 38.7547 24.9348 37.2911 24.9348H26.626C25.8804 24.9348 25.276 25.5392 25.276 26.2847V37.0565C25.276 38.5201 24.0895 39.7065 22.626 39.7065H17.8269C16.3633 39.7065 15.1769 38.5201 15.1769 37.0565V26.2848C15.1769 25.5392 14.5725 24.9348 13.8269 24.9348H3.16172C1.69816 24.9348 0.511719 23.7483 0.511719 22.2848V17.4217C0.511719 15.9581 1.69816 14.7717 3.16172 14.7717H13.8269C14.5725 14.7717 15.1769 14.1673 15.1769 13.4217V2.64991ZM17.8269 1.29991C17.0813 1.29991 16.4769 1.90432 16.4769 2.64991V13.4217C16.4769 14.8852 15.2904 16.0717 13.8269 16.0717H3.16172C2.41613 16.0717 1.81172 16.6761 1.81172 17.4217V22.2848C1.81172 23.0303 2.41613 23.6348 3.16172 23.6348H13.8269C15.2904 23.6348 16.4769 24.8212 16.4769 26.2848V37.0565C16.4769 37.8021 17.0813 38.4065 17.8269 38.4065H22.626C23.3715 38.4065 23.976 37.8021 23.976 37.0565V26.2847C23.976 24.8212 25.1624 23.6348 26.626 23.6348H37.2911C38.0367 23.6348 38.6411 23.0303 38.6411 22.2848V17.4217C38.6411 16.6761 38.0367 16.0717 37.2911 16.0717H26.626C25.1624 16.0717 23.976 14.8852 23.976 13.4217V2.64991C23.976 1.90432 23.3715 1.29991 22.626 1.29991H17.8269Z" fill="#5B5353"/>
<path d="M17.8269 -1.00009C15.811 -1.00009 14.1769 0.634069 14.1769 2.64991H16.1769C16.1769 1.73864 16.9156 0.999908 17.8269 0.999908V-1.00009ZM22.626 -1.00009H17.8269V0.999908H22.626V-1.00009ZM26.276 2.64991C26.276 0.634065 24.6418 -1.00009 22.626 -1.00009V0.999908C23.5372 0.999908 24.276 1.73864 24.276 2.64991H26.276ZM26.276 13.4217V2.64991H24.276V13.4217H26.276ZM26.626 13.7717C26.4327 13.7717 26.276 13.615 26.276 13.4217H24.276C24.276 14.7196 25.3281 15.7717 26.626 15.7717V13.7717ZM37.2911 13.7717H26.626V15.7717H37.2911V13.7717ZM40.9411 17.4217C40.9411 15.4058 39.3069 13.7717 37.2911 13.7717V15.7717C38.2024 15.7717 38.9411 16.5104 38.9411 17.4217H40.9411ZM40.9411 22.2848V17.4217H38.9411V22.2848H40.9411ZM37.2911 25.9348C39.307 25.9348 40.9411 24.3006 40.9411 22.2848H38.9411C38.9411 23.196 38.2024 23.9348 37.2911 23.9348V25.9348ZM26.626 25.9348H37.2911V23.9348H26.626V25.9348ZM26.276 26.2847C26.276 26.0915 26.4327 25.9348 26.626 25.9348V23.9348C25.3281 23.9348 24.276 24.9869 24.276 26.2847H26.276ZM26.276 37.0565V26.2847H24.276V37.0565H26.276ZM22.626 40.7065C24.6418 40.7065 26.276 39.0724 26.276 37.0565H24.276C24.276 37.9678 23.5372 38.7065 22.626 38.7065V40.7065ZM17.8269 40.7065H22.626V38.7065H17.8269V40.7065ZM14.1769 37.0565C14.1769 39.0724 15.811 40.7065 17.8269 40.7065V38.7065C16.9156 38.7065 16.1769 37.9678 16.1769 37.0565H14.1769ZM14.1769 26.2848V37.0565H16.1769V26.2848H14.1769ZM13.8269 25.9348C14.0202 25.9348 14.1769 26.0914 14.1769 26.2848H16.1769C16.1769 24.9869 15.1247 23.9348 13.8269 23.9348V25.9348ZM3.16172 25.9348H13.8269V23.9348H3.16172V25.9348ZM-0.488281 22.2848C-0.488281 24.3006 1.14588 25.9348 3.16172 25.9348V23.9348C2.25045 23.9348 1.51172 23.196 1.51172 22.2848H-0.488281ZM-0.488281 17.4217V22.2848H1.51172V17.4217H-0.488281ZM3.16172 13.7717C1.14588 13.7717 -0.488281 15.4058 -0.488281 17.4217H1.51172C1.51172 16.5104 2.25045 15.7717 3.16172 15.7717V13.7717ZM13.8269 13.7717H3.16172V15.7717H13.8269V13.7717ZM14.1769 13.4217C14.1769 13.615 14.0202 13.7717 13.8269 13.7717V15.7717C15.1247 15.7717 16.1769 14.7196 16.1769 13.4217H14.1769ZM14.1769 2.64991V13.4217H16.1769V2.64991H14.1769ZM17.4769 2.64991C17.4769 2.45661 17.6336 2.29991 17.8269 2.29991V0.299908C16.529 0.299908 15.4769 1.35204 15.4769 2.64991H17.4769ZM17.4769 13.4217V2.64991H15.4769V13.4217H17.4769ZM13.8269 17.0717C15.8427 17.0717 17.4769 15.4375 17.4769 13.4217H15.4769C15.4769 14.333 14.7381 15.0717 13.8269 15.0717V17.0717ZM3.16172 17.0717H13.8269V15.0717H3.16172V17.0717ZM2.81172 17.4217C2.81172 17.2284 2.96842 17.0717 3.16172 17.0717V15.0717C1.86385 15.0717 0.811719 16.1238 0.811719 17.4217H2.81172ZM2.81172 22.2848V17.4217H0.811719V22.2848H2.81172ZM3.16172 22.6348C2.96842 22.6348 2.81172 22.4781 2.81172 22.2848H0.811719C0.811719 23.5826 1.86385 24.6348 3.16172 24.6348V22.6348ZM13.8269 22.6348H3.16172V24.6348H13.8269V22.6348ZM17.4769 26.2848C17.4769 24.2689 15.8427 22.6348 13.8269 22.6348V24.6348C14.7381 24.6348 15.4769 25.3735 15.4769 26.2848H17.4769ZM17.4769 37.0565V26.2848H15.4769V37.0565H17.4769ZM17.8269 37.4065C17.6336 37.4065 17.4769 37.2498 17.4769 37.0565H15.4769C15.4769 38.3544 16.529 39.4065 17.8269 39.4065V37.4065ZM22.626 37.4065H17.8269V39.4065H22.626V37.4065ZM22.976 37.0565C22.976 37.2498 22.8193 37.4065 22.626 37.4065V39.4065C23.9238 39.4065 24.976 38.3544 24.976 37.0565H22.976ZM22.976 26.2847V37.0565H24.976V26.2847H22.976ZM26.626 22.6348C24.6101 22.6348 22.976 24.2689 22.976 26.2847H24.976C24.976 25.3735 25.7147 24.6348 26.626 24.6348V22.6348ZM37.2911 22.6348H26.626V24.6348H37.2911V22.6348ZM37.6411 22.2848C37.6411 22.4781 37.4844 22.6348 37.2911 22.6348V24.6348C38.589 24.6348 39.6411 23.5826 39.6411 22.2848H37.6411ZM37.6411 17.4217V22.2848H39.6411V17.4217H37.6411ZM37.2911 17.0717C37.4844 17.0717 37.6411 17.2284 37.6411 17.4217H39.6411C39.6411 16.1238 38.589 15.0717 37.2911 15.0717V17.0717ZM26.626 17.0717H37.2911V15.0717H26.626V17.0717ZM22.976 13.4217C22.976 15.4375 24.6101 17.0717 26.626 17.0717V15.0717C25.7147 15.0717 24.976 14.333 24.976 13.4217H22.976ZM22.976 2.64991V13.4217H24.976V2.64991H22.976ZM22.626 2.29991C22.8193 2.29991 22.976 2.45661 22.976 2.64991H24.976C24.976 1.35204 23.9238 0.299908 22.626 0.299908V2.29991ZM17.8269 2.29991H22.626V0.299908H17.8269V2.29991Z" fill="#5B5353" mask="url(#path-1-inside-1)"/>
</svg>

<svg width="40" height="40" viewBox="0 0 40 40" fill="none" xmlns="http://www.w3.org/2000/svg">

</svg>
