<svg width="80" height="50" viewBox="0 0 80 50" fill="none" xmlns="http://www.w3.org/2000/svg">
<path d="M79.5382 9.29958L79.4475 9.03202L79.2156 8.9143C66.8811 3.03803 53.5144 0 39.9945 0C26.4746 0 13.1079 3.03803 0.773409 8.9143L0.54151 9.03202L0.450767 9.29958C0.0769104 10.4698 -0.0667699 11.709 0.0286136 12.9405C0.123997 14.172 0.456416 15.3696 1.00531 16.4593C3.53602 21.4466 8.22441 30.6397 9.07134 32.3093L7.05483 37.7674L13.9715 46.4469H14.1529C22.59 48.7895 31.2736 49.9834 39.9945 50C48.72 50.0027 57.4104 48.8267 65.8562 46.5004H66.0377L72.9543 37.8209L70.9378 32.3628L79.0038 16.4486C79.5515 15.3601 79.8816 14.1634 79.9735 12.9333C80.0655 11.7031 79.9173 10.4661 79.5382 9.29958ZM77.9149 15.7958L69.8489 31.6457L57.1348 32.5554L57.2155 33.8397L69.8791 32.9407L71.6033 37.5319L65.4025 45.3017C48.7622 49.8502 31.3075 49.8502 14.6671 45.3017L8.46639 37.5319L10.1905 32.9407L27.2602 34.1501C35.7673 34.7494 44.3024 34.7494 52.8094 34.1501L52.7287 32.8658C44.2755 33.4651 35.7941 33.4651 27.3409 32.8658L10.2006 31.6457C9.29316 29.8692 4.66527 20.8044 2.13455 15.8493C1.22633 14.0453 1.02699 11.9332 1.58001 9.97381C13.6883 4.24275 26.7974 1.28094 40.055 1.28094C53.3125 1.28094 66.4217 4.24275 78.53 9.97381C79.0595 11.9243 78.8383 14.0182 77.9149 15.7958Z" fill="#5B5353"/>
<path d="M43.7043 17.0584C43.1228 16.5146 42.4415 16.1044 41.7034 15.8537C40.9653 15.603 40.1863 15.5172 39.4154 15.6016C38.6445 15.6861 37.8984 15.939 37.224 16.3444C36.5497 16.7498 35.9617 17.299 35.4971 17.9574V17.7433C35.2008 16.2326 34.4237 14.8761 33.2964 13.9016C32.1691 12.9272 30.7602 12.3943 29.3064 12.3922H13.7793L17.288 18.9206C17.6497 19.605 18.1489 20.1966 18.75 20.6534C19.3511 21.1102 20.0396 21.4211 20.7665 21.564L34.8821 24.1968V24.1004C35.3296 25.1468 36.0516 26.0342 36.9617 26.6565C37.8718 27.2789 38.9315 27.6098 40.0141 27.6098C41.0967 27.6098 42.1564 27.2789 43.0665 26.6565C43.9766 26.0342 44.6985 25.1468 45.1461 24.1004V24.1968L59.2616 21.564C59.9922 21.4279 60.6854 21.1223 61.2919 20.669C61.8984 20.2158 62.4032 19.6261 62.7704 18.942L66.2085 12.3601H49.7135C48.3721 12.3667 47.0674 12.8252 45.9874 13.6696C44.9074 14.514 44.1079 15.7006 43.7043 17.0584ZM34.4586 22.7734L20.9782 20.2476C20.4241 20.1437 19.8983 19.9115 19.4382 19.5674C18.9782 19.2234 18.5952 18.776 18.3164 18.257L15.7958 13.6444H29.2661C30.4519 13.6371 31.6033 14.0676 32.523 14.8622C33.4427 15.6568 34.0735 16.7662 34.3073 18.0002L34.6602 19.8089C34.4728 20.3737 34.3675 20.9655 34.3477 21.564C34.3486 21.9699 34.3857 22.3749 34.4586 22.7734ZM39.9939 26.273C38.8173 26.273 37.6889 25.7769 36.8569 24.8938C36.025 24.0107 35.5576 22.8129 35.5576 21.564C35.5576 20.3151 36.025 19.1174 36.8569 18.2343C37.6889 17.3512 38.8173 16.8551 39.9939 16.8551C41.1149 16.8413 42.198 17.2858 43.0187 18.0965L43.674 18.8671C44.1446 19.5752 44.4215 20.4077 44.4741 21.2725C44.5267 22.1372 44.353 23.0006 43.9721 23.7671C43.5912 24.5336 43.018 25.1733 42.316 25.6156C41.6139 26.0578 40.8102 26.2854 39.9939 26.273ZM61.6714 18.257C61.3926 18.776 61.0096 19.2234 60.5496 19.5674C60.0896 19.9115 59.5637 20.1437 59.0096 20.2476L45.5292 22.7734C45.6021 22.3749 45.6392 21.9699 45.6401 21.564C45.6389 20.5156 45.3781 19.4859 44.8839 18.5781L44.6722 18.1928V18.0002C44.9061 16.7662 45.5369 15.6568 46.4566 14.8622C47.3763 14.0676 48.5276 13.6371 49.7135 13.6444H64.192L61.6714 18.257Z" fill="#5B5353"/>
</svg>
