<svg width="80" height="80" viewBox="0 0 80 80" fill="none" xmlns="http://www.w3.org/2000/svg">
<path d="M36.8506 25.7931L31.3755 1.16256H35.3144C36.3845 1.16638 37.4391 1.41943 38.3945 1.90166C39.35 2.38389 40.1801 3.08207 40.8191 3.94089L57.3627 26.2759L58.3474 25.5764L41.794 3.25123C41.0434 2.24481 40.0688 1.42707 38.9476 0.862754C37.8264 0.29844 36.5892 0.00305715 35.3341 0H29.9082L35.6886 26.0493L36.8506 25.7931Z" fill="#5EBCD0"/>
<path d="M38.6411 75.0739H60.6992V73.8916H38.6411V67.1921H49.8671V66.0098H38.6411V59.3103H47.8976V58.1281H38.6411V51.4286H50.8518V50.2463H38.6411V43.5468H67.9862V46.6108H69.1679V43.5468H73.9242C74.057 44.8078 74.6184 45.985 75.5146 46.8816C76.4108 47.7783 77.5874 48.34 78.8479 48.4729V68.9951C77.5874 69.128 76.4108 69.6897 75.5146 70.5863C74.6184 71.4829 74.057 72.6601 73.9242 73.9212H69.1679V70.8276H67.9862V73.8916H66.6076V75.0739H75.0763V74.4828C75.0763 73.333 75.5328 72.2304 76.3454 71.4175C77.1579 70.6045 78.26 70.1478 79.4092 70.1478H80V47.2906H79.4092C78.26 47.2906 77.1579 46.8339 76.3454 46.0209C75.5328 45.208 75.0763 44.1053 75.0763 42.9556V42.3645H38.6411V34.0197H72.3781C74.3996 34.0197 76.3382 33.2163 77.7676 31.7862C79.197 30.3561 80 28.4165 80 26.3941C80 24.3716 79.197 22.432 77.7676 21.0019C76.3382 19.5718 74.3996 18.7684 72.3781 18.7684H59.7144V19.9507H72.3781C73.2239 19.9507 74.0613 20.1174 74.8427 20.4412C75.624 20.765 76.334 21.2396 76.932 21.8379C77.5301 22.4362 78.0044 23.1465 78.3281 23.9283C78.6517 24.71 78.8183 25.5479 78.8183 26.3941C78.8183 27.2402 78.6517 28.0781 78.3281 28.8598C78.0044 29.6416 77.5301 30.3519 76.932 30.9502C76.334 31.5485 75.624 32.0231 74.8427 32.3469C74.0613 32.6707 73.2239 32.8374 72.3781 32.8374H38.6411V29.5566H12.2206L1.22107 24.6305V2.24626L7.6514 3.54675C8.27257 3.6726 8.8606 3.92691 9.37781 4.29337C9.89502 4.65984 10.33 5.13038 10.6549 5.67483L17.8828 18.6207L7.25751 17.5468L7.13934 18.729L19.3895 19.9507H29.6997V18.7684H19.3402L11.679 5.0837C11.2699 4.39138 10.7202 3.79257 10.0655 3.3259C9.41078 2.85923 8.66555 2.53507 7.87789 2.37434L0 0.807835V25.3694L9.29591 29.5566H0.0393894V80H38.6411V75.0739ZM37.4594 78.8177H1.22107V30.7389H11.9646L12.2009 30.8473L12.2501 30.7389H37.4594V78.8177Z" fill="#5EBCD0"/>
<path d="M7.03931 49.665C7.02371 52.102 7.73177 54.4889 9.07373 56.5228C10.4157 58.5568 12.3311 60.1463 14.5771 61.0897C16.8231 62.0332 19.2985 62.2881 21.6895 61.8223C24.0805 61.3564 26.2794 60.1907 28.0074 58.4729C29.7354 56.7552 30.9147 54.5627 31.3957 52.1736C31.8766 49.7844 31.6377 47.3062 30.7092 45.0531C29.7806 42.8 28.2043 40.8735 26.18 39.5178C24.1557 38.1621 21.7746 37.4384 19.3387 37.4384C16.0879 37.4305 12.9669 38.7136 10.6609 41.006C8.35487 43.2984 7.05235 46.4126 7.03931 49.665ZM8.25054 50.2561H14.8483C14.9271 54.3053 15.7247 58.4236 17.1821 60.5024C14.7667 60.0309 12.5772 58.7676 10.9597 56.912C9.3422 55.0564 8.38892 52.7143 8.25054 50.2561ZM19.3387 60.6896C17.8222 60.6896 16.1383 56.2561 16.0398 50.2364H22.6376C22.5391 56.2758 20.8552 60.6896 19.3387 60.6896ZM21.4953 60.4827C22.9527 58.4039 23.7503 54.2856 23.8291 50.2364H30.4268C30.2927 52.6981 29.3413 55.0447 27.7235 56.9042C26.1056 58.7638 23.9138 60.0301 21.4953 60.5024V60.4827ZM30.4268 49.0541H23.8291C23.7503 45.0049 22.9527 40.8965 21.4953 38.8177C23.913 39.288 26.1046 40.5523 27.7226 42.4102C29.3405 44.2682 30.2923 46.6133 30.4268 49.0738V49.0541ZM19.3387 38.6206C20.8552 38.6206 22.5391 43.0541 22.6376 49.0738H16.0398C16.1383 43.0541 17.8222 38.6206 19.3387 38.6206ZM17.1821 38.8374C15.7247 40.9162 14.9271 45.0246 14.8483 49.0738H8.25054C8.38937 46.6168 9.34301 44.2762 10.9606 42.4222C12.5783 40.5683 14.7675 39.3068 17.1821 38.8374Z" fill="#5EBCD0"/>
<path d="M31.1571 69.9508H7.52344V71.133H31.1571V69.9508Z" fill="#5EBCD0"/>
<path d="M69.166 50.0689H67.9844V53.5271H69.166V50.0689Z" fill="#5EBCD0"/>
<path d="M69.166 56.9852H67.9844V60.4433H69.166V56.9852Z" fill="#5EBCD0"/>
<path d="M69.166 63.9114H67.9844V67.3695H69.166V63.9114Z" fill="#5EBCD0"/>
<path d="M62.6693 50.2463H53.8066V51.4286H62.6693V50.2463Z" fill="#5EBCD0"/>
<path d="M53.2148 67.1921H62.2744V58.1281H53.2148V67.1921ZM54.3965 59.3104H61.0927V66.0099H54.3965V59.3104Z" fill="#5EBCD0"/>
</svg>
