<svg width="80" height="70" viewBox="0 0 80 70" fill="none" xmlns="http://www.w3.org/2000/svg">
<path d="M0 5.34884V64.6512C0 66.0698 0.56028 67.4303 1.55758 68.4334C2.55489 69.4365 3.90752 70 5.31792 70H74.6821C76.0925 70 77.4451 69.4365 78.4424 68.4334C79.4397 67.4303 80 66.0698 80 64.6512V5.34884C80 3.93024 79.4397 2.56974 78.4424 1.56664C77.4451 0.563537 76.0925 0 74.6821 0H67.7457V1.39535H74.6821C75.1983 1.39535 75.7094 1.49761 76.1863 1.69629C76.6632 1.89497 77.0965 2.18618 77.4615 2.5533C77.8264 2.92041 78.116 3.35624 78.3135 3.8359C78.511 4.31556 78.6127 4.82966 78.6127 5.34884V64.6512C78.6127 65.6997 78.1986 66.7053 77.4615 67.4467C76.7243 68.1881 75.7245 68.6047 74.6821 68.6047H5.31792C4.27545 68.6047 3.27568 68.1881 2.53854 67.4467C1.8014 66.7053 1.38728 65.6997 1.38728 64.6512V5.34884C1.38728 4.30031 1.8014 3.29472 2.53854 2.5533C3.27568 1.81188 4.27545 1.39535 5.31792 1.39535H60.8092V0H5.31792C3.90752 0 2.55489 0.563537 1.55758 1.56664C0.56028 2.56974 0 3.93024 0 5.34884Z" fill="#5B5353"/>
<path d="M58.0111 58.3721H65.433V56.9768H58.9822L54.3579 44.1861H46.9359C46.3418 42.5488 45.4123 41.0553 44.2076 39.8024V30.9303C44.2076 29.7231 43.8735 28.5398 43.2425 27.5129C42.6116 26.486 41.7088 25.6562 40.6354 25.1163C41.9408 24.4612 42.988 23.3819 43.6072 22.0532C44.2263 20.7246 44.3812 19.2246 44.0466 17.7963C43.7121 16.368 42.9077 15.0953 41.7639 14.1844C40.6202 13.2736 39.2041 12.778 37.7452 12.778C36.2863 12.778 34.8702 13.2736 33.7264 14.1844C32.5827 15.0953 31.7783 16.368 31.4437 17.7963C31.1092 19.2246 31.264 20.7246 31.8832 22.0532C32.5024 23.3819 33.5496 24.4612 34.855 25.1163C33.7815 25.6562 32.8788 26.486 32.2478 27.5129C31.6169 28.5398 31.2827 29.7231 31.2828 30.9303H32.67C32.67 29.5733 33.206 28.272 34.1599 27.3125C35.1138 26.353 36.4077 25.814 37.7567 25.814C39.1058 25.814 40.3996 26.353 41.3536 27.3125C42.3075 28.272 42.8434 29.5733 42.8434 30.9303V38.5698C41.4255 37.4793 39.787 36.7149 38.0435 36.3304C36.2999 35.9458 34.4938 35.9505 32.7522 36.344C31.0107 36.7376 29.3762 37.5105 27.9638 38.6083C26.5514 39.706 25.3955 41.102 24.5775 42.6977V21.1396L14.8781 17.4884L14.3926 18.7907L23.1903 22.1163V48.3721C23.1903 51.6411 24.4813 54.7761 26.7795 57.0876C29.0776 59.3991 32.1946 60.6977 35.4446 60.6977C38.6947 60.6977 41.8116 59.3991 44.1097 57.0876C46.4079 54.7761 47.6989 51.6411 47.6989 48.3721C47.6923 47.4328 47.5838 46.497 47.3752 45.5814H53.4562L58.0111 58.3721ZM32.6007 19.3024C32.6007 18.2905 32.899 17.3013 33.4579 16.4599C34.0169 15.6185 34.8113 14.9628 35.7408 14.5755C36.6703 14.1883 37.693 14.087 38.6797 14.2844C39.6665 14.4818 40.5728 14.9691 41.2842 15.6846C41.9956 16.4001 42.4801 17.3118 42.6763 18.3042C42.8726 19.2967 42.7719 20.3254 42.3869 21.2603C42.0019 22.1952 41.3499 22.9942 40.5134 23.5564C39.6769 24.1186 38.6934 24.4186 37.6874 24.4186C36.3383 24.4186 35.0445 23.8796 34.0905 22.9201C33.1366 21.9606 32.6007 20.6593 32.6007 19.3024ZM35.3752 59.3024C33.3604 59.3032 31.385 58.7406 29.6697 57.6774C27.9543 56.6143 26.5667 55.0924 25.6617 53.2817C24.7566 51.4711 24.3699 49.4431 24.5446 47.4241C24.7194 45.4052 25.4487 43.4749 26.6512 41.8488C27.8537 40.2228 29.482 38.9649 31.3542 38.2159C33.2263 37.4669 35.2687 37.2561 37.2531 37.6071C39.2375 37.9581 41.0858 38.8572 42.5915 40.2037C44.0972 41.5503 45.2011 43.2914 45.7799 45.2326L45.8723 45.5814C46.1133 46.492 46.2376 47.4298 46.2423 48.3721C46.2392 51.2701 45.0933 54.0484 43.056 56.0976C41.0187 58.1467 38.2564 59.2993 35.3752 59.3024Z" fill="#5B5353"/>
<path d="M35.3756 50.6979C36.6526 50.6979 37.6878 49.6567 37.6878 48.3723C37.6878 47.0879 36.6526 46.0467 35.3756 46.0467C34.0987 46.0467 33.0635 47.0879 33.0635 48.3723C33.0635 49.6567 34.0987 50.6979 35.3756 50.6979Z" fill="#5B5353"/>
</svg>
