<svg width="20" height="20" viewBox="0 0 20 20" fill="none" xmlns="http://www.w3.org/2000/svg">
<path d="M16.0781 13.4241L13.2335 11.5751L14.3059 9.60891C14.556 9.14975 14.6871 8.63535 14.6875 8.11254V5C14.6875 3.83968 14.2266 2.72688 13.4061 1.90641C12.5856 1.08594 11.4728 0.625 10.3125 0.625C9.15218 0.625 8.03939 1.08594 7.21891 1.90641C6.39844 2.72688 5.93751 3.83968 5.93751 5V8.11254C5.93789 8.63536 6.06906 9.14977 6.31907 9.60894L7.39153 11.5751L4.54688 13.4241C4.10969 13.7071 3.75047 14.0952 3.50206 14.553C3.25366 15.0107 3.12402 15.5234 3.12501 16.0442V19.375H17.5V16.0442C17.501 15.5234 17.3713 15.0107 17.1229 14.553C16.8745 14.0952 16.5153 13.7071 16.0781 13.4241ZM16.25 18.125H4.37501V16.0442C4.37442 15.7317 4.45221 15.4241 4.60126 15.1494C4.75031 14.8748 4.96585 14.6419 5.22817 14.4721L9.04301 11.9925L7.41645 9.01039C7.26645 8.73488 7.18775 8.42623 7.18751 8.11254V5C7.18751 4.1712 7.51675 3.37634 8.1028 2.79029C8.68885 2.20424 9.4837 1.875 10.3125 1.875C11.1413 1.875 11.9362 2.20424 12.5222 2.79029C13.1083 3.37634 13.4375 4.1712 13.4375 5V8.11254C13.4373 8.42623 13.3586 8.73488 13.2086 9.01039L11.582 11.9925L15.397 14.4721C15.6593 14.6419 15.8748 14.8748 16.0238 15.1495C16.1728 15.4241 16.2506 15.7317 16.25 16.0442V18.125Z" fill="#5B5353"/>
</svg>
