<svg width="20" height="20" viewBox="0 0 20 20" fill="none" xmlns="http://www.w3.org/2000/svg">
<path d="M1.15802 18.8379L1.16142 18.8413C1.25154 18.9321 1.35871 19.0041 1.47678 19.0534C1.59484 19.1026 1.72147 19.128 1.84939 19.1281C1.95702 19.128 2.06391 19.1103 2.16579 19.0756L7.7129 17.1938L18.3574 6.54931C19.0082 5.89852 19.3737 5.01589 19.3737 4.09558C19.3736 3.17527 19.008 2.29267 18.3572 1.64194C17.7064 0.991214 16.8238 0.625662 15.9035 0.625702C14.9832 0.625742 14.1006 0.991372 13.4499 1.64216L2.80532 12.2867L0.923762 17.8336C0.864493 18.0061 0.855033 18.1918 0.896466 18.3695C0.937899 18.5471 1.02855 18.7094 1.15802 18.8379ZM14.3338 2.52602C14.7507 2.11232 15.3145 1.88068 15.9018 1.8818C16.4891 1.88293 17.0521 2.11674 17.4674 2.53204C17.8826 2.94734 18.1164 3.51028 18.1176 4.09759C18.1187 4.6849 17.887 5.24873 17.4733 5.66559L16.0735 7.06536L12.934 3.92579L14.3338 2.52602ZM3.89556 12.9642L12.0501 4.80966L15.1897 7.94923L7.03509 16.1038L2.28376 17.7156L3.89556 12.9642Z" fill="#5B5353"/>
</svg>
