<svg width="80" height="80" viewBox="0 0 80 80" fill="none" xmlns="http://www.w3.org/2000/svg">
<path d="M38.4653 54.1873H13.9128V55.37H38.4653V54.1873Z" fill="#5B5353"/>
<path d="M26.1892 11.8226C22.6281 11.8226 19.147 12.8396 16.1861 14.7449C13.2252 16.6503 10.9174 19.3584 9.55465 22.5268C8.19188 25.6953 7.83532 29.1818 8.53005 32.5454C9.22478 35.909 10.9396 38.9987 13.4577 41.4237C15.9757 43.8487 19.1839 45.5002 22.6766 46.1693C26.1692 46.8383 29.7895 46.4949 33.0795 45.1825C36.3695 43.8701 39.1815 41.6476 41.1599 38.7961C43.1383 35.9445 44.1943 32.592 44.1943 29.1625C44.1862 24.5661 42.2866 20.1602 38.9118 16.91C35.5369 13.6598 30.962 11.8304 26.1892 11.8226ZM26.1892 13.0049C28.7467 13.0049 31.5805 19.3694 31.7033 28.5714H20.6751C20.7979 19.3694 23.6317 13.0049 26.1892 13.0049ZM23.4475 13.2414C20.9718 15.9803 19.5294 22.266 19.4475 28.5714H9.4424C9.5876 24.854 11.0603 21.2987 13.6118 18.5058C16.1634 15.7129 19.6374 13.8534 23.4475 13.2414ZM9.4424 29.7537H19.4475C19.5294 36.0295 20.9718 42.3448 23.4475 45.0837C19.6374 44.4716 16.1634 42.6122 13.6118 39.8192C11.0603 37.0263 9.5876 33.4711 9.4424 29.7537ZM26.1892 45.3202C23.6317 45.3202 20.7979 38.9556 20.6751 29.7537H31.7033C31.5805 38.9556 28.7467 45.3202 26.1892 45.3202ZM28.9309 45.0837C31.4066 42.3448 32.8491 36.0591 32.9309 29.7537H42.936C42.7908 33.4711 41.3181 37.0263 38.7666 39.8192C36.2151 42.6122 32.741 44.4716 28.9309 45.0837ZM32.9309 28.5714C32.8491 22.266 31.4066 15.9803 28.9309 13.2414C32.741 13.8534 36.2151 15.7129 38.7666 18.5058C41.3181 21.2987 42.7908 24.854 42.936 28.5714H32.9309Z" fill="#5B5353"/>
<path d="M74.8849 9.45813V8.86699H52.3785V0H0V70.1478H27.6215V75.0739H28.2353C29.4291 75.0739 30.574 75.5306 31.4182 76.3436C32.2623 77.1565 32.7366 78.2592 32.7366 79.4089V80H74.8849V79.4089C74.8849 78.2592 75.3592 77.1565 76.2033 76.3436C77.0475 75.5306 78.1924 75.0739 79.3862 75.0739H80V13.7931H79.3862C78.1924 13.7931 77.0475 13.3364 76.2033 12.5234C75.3592 11.7105 74.8849 10.6078 74.8849 9.45813ZM1.22762 68.9655V1.18227H51.1509V68.9655H1.22762ZM78.7724 24.6305H77.3401V25.8128H78.7724V73.9212C77.463 74.0541 76.2406 74.6158 75.3096 75.5124C74.3785 76.409 73.7953 77.5863 73.6573 78.8473H33.9335C33.7955 77.5863 33.2122 76.409 32.2812 75.5124C31.3502 74.6158 30.1278 74.0541 28.8184 73.9212V70.1478H52.3478V25.8128H53.8107V24.6305H52.3785V10.0493H73.688C73.826 11.3103 74.4092 12.4875 75.3403 13.3841C76.2713 14.2808 77.4937 14.8425 78.8031 14.9754L78.7724 24.6305Z" fill="#5B5353"/>
<path d="M63.2225 24.6305H58.5166V25.8132H63.2225V24.6305Z" fill="#5B5353"/>
<path d="M72.6343 24.6305H67.9285V25.8132H72.6343V24.6305Z" fill="#5B5353"/>
<path d="M69.7696 51.8226H68.542V71.5271H69.7696V51.8226Z" fill="#5B5353"/>
<path d="M61.5858 41.9703H60.3582V71.527H61.5858V41.9703Z" fill="#5B5353"/>
</svg>
