<svg width="20" height="20" viewBox="0 0 20 20" fill="none" xmlns="http://www.w3.org/2000/svg">
<path d="M17.9826 5.71244C18.0992 5.32494 17.9826 5.04077 17.4309 5.04077H15.6034C15.1384 5.04077 14.9259 5.28661 14.8092 5.55661C14.8092 5.55661 13.8801 7.82244 12.5634 9.2916C12.1384 9.7191 11.9442 9.8541 11.7126 9.8541C11.5967 9.8541 11.4284 9.7191 11.4284 9.3316V5.71244C11.4284 5.24744 11.2942 5.04077 10.9067 5.04077H8.03508C7.74508 5.04077 7.57008 5.25577 7.57008 5.46077C7.57008 5.90077 8.22841 6.00244 8.29591 7.24244V9.93244C8.29591 10.5216 8.19008 10.6291 7.95675 10.6291C7.33758 10.6291 5.83091 8.35494 4.93675 5.7516C4.76258 5.24577 4.58675 5.04161 4.12008 5.04161H2.29341C1.77091 5.04161 1.66675 5.28744 1.66675 5.55744C1.66675 6.04244 2.28591 8.44244 4.55091 11.6166C6.06091 13.7841 8.18675 14.9591 10.1234 14.9591C11.2842 14.9591 11.4276 14.6983 11.4276 14.2483V12.6099C11.4276 12.0883 11.5384 11.9833 11.9059 11.9833C12.1759 11.9833 12.6409 12.1199 13.7251 13.1641C14.9634 14.4024 15.1684 14.9583 15.8642 14.9583H17.6909C18.2126 14.9583 18.4734 14.6974 18.3234 14.1824C18.1592 13.6699 17.5676 12.9241 16.7826 12.0416C16.3559 11.5383 15.7184 10.9966 15.5242 10.7258C15.2534 10.3766 15.3317 10.2224 15.5242 9.91244C15.5251 9.91327 17.7509 6.77827 17.9826 5.71244Z" fill="#5B5353"/>
</svg>
